G04 EAGLE Gerber RS-274X export*
G75*
%MOMM*%
%FSLAX34Y34*%
%LPD*%
%INTop Copper*%
%IPPOS*%
%AMOC8*
5,1,8,0,0,1.08239X$1,22.5*%
G01*
%ADD10R,1.300000X1.500000*%
%ADD11C,2.540000*%
%ADD12P,2.749271X8X202.500000*%
%ADD13R,1.400000X1.100000*%
%ADD14C,1.320800*%
%ADD15C,1.524000*%
%ADD16C,0.812800*%
%ADD17C,0.756400*%

G36*
X215918Y10672D02*
X215918Y10672D01*
X215940Y10670D01*
X216178Y10689D01*
X216227Y10703D01*
X216295Y10712D01*
X216749Y10860D01*
X216796Y10886D01*
X216890Y10932D01*
X217276Y11212D01*
X217312Y11252D01*
X217388Y11324D01*
X217668Y11710D01*
X217691Y11759D01*
X217740Y11851D01*
X217888Y12305D01*
X217894Y12356D01*
X217911Y12422D01*
X217930Y12660D01*
X217927Y12679D01*
X217931Y12700D01*
X217931Y393700D01*
X217928Y393718D01*
X217930Y393740D01*
X217911Y393978D01*
X217897Y394027D01*
X217888Y394095D01*
X217740Y394549D01*
X217714Y394596D01*
X217668Y394690D01*
X217388Y395076D01*
X217348Y395112D01*
X217276Y395188D01*
X216890Y395468D01*
X216841Y395491D01*
X216749Y395540D01*
X216295Y395688D01*
X216244Y395694D01*
X216178Y395711D01*
X215940Y395730D01*
X215921Y395727D01*
X215900Y395731D01*
X12700Y395731D01*
X12682Y395728D01*
X12660Y395730D01*
X12422Y395711D01*
X12372Y395697D01*
X12305Y395688D01*
X11851Y395540D01*
X11804Y395514D01*
X11710Y395468D01*
X11324Y395188D01*
X11288Y395149D01*
X11212Y395076D01*
X10932Y394690D01*
X10909Y394641D01*
X10860Y394549D01*
X10712Y394095D01*
X10706Y394044D01*
X10689Y393978D01*
X10670Y393740D01*
X10673Y393721D01*
X10669Y393700D01*
X10669Y12700D01*
X10670Y12693D01*
X10669Y12687D01*
X10672Y12675D01*
X10670Y12660D01*
X10689Y12422D01*
X10703Y12373D01*
X10712Y12305D01*
X10860Y11851D01*
X10886Y11804D01*
X10932Y11710D01*
X11212Y11324D01*
X11252Y11288D01*
X11324Y11212D01*
X11710Y10932D01*
X11759Y10909D01*
X11851Y10860D01*
X12305Y10712D01*
X12356Y10706D01*
X12422Y10689D01*
X12660Y10670D01*
X12679Y10673D01*
X12700Y10669D01*
X215900Y10669D01*
X215918Y10672D01*
G37*
%LPC*%
G36*
X150581Y28955D02*
X150581Y28955D01*
X147220Y30347D01*
X144647Y32920D01*
X143255Y36281D01*
X143255Y39919D01*
X144647Y43280D01*
X146663Y45295D01*
X146667Y45302D01*
X146673Y45306D01*
X146722Y45385D01*
X146774Y45462D01*
X146775Y45470D01*
X146779Y45477D01*
X146811Y45654D01*
X146811Y113579D01*
X146810Y113586D01*
X146811Y113592D01*
X146790Y113684D01*
X146772Y113776D01*
X146768Y113781D01*
X146767Y113788D01*
X146712Y113864D01*
X146659Y113942D01*
X146654Y113945D01*
X146650Y113950D01*
X146498Y114048D01*
X144342Y114941D01*
X140341Y118942D01*
X138175Y124170D01*
X138175Y129830D01*
X139068Y131985D01*
X139069Y131992D01*
X139073Y131997D01*
X139089Y132090D01*
X139107Y132182D01*
X139106Y132188D01*
X139107Y132195D01*
X139085Y132286D01*
X139066Y132378D01*
X139063Y132384D01*
X139061Y132390D01*
X138958Y132538D01*
X132406Y139091D01*
X130762Y140734D01*
X129911Y142788D01*
X129911Y286004D01*
X129910Y286009D01*
X129911Y286014D01*
X129890Y286107D01*
X129872Y286201D01*
X129869Y286205D01*
X129868Y286210D01*
X129812Y286288D01*
X129759Y286366D01*
X129755Y286369D01*
X129752Y286373D01*
X129670Y286424D01*
X129591Y286476D01*
X129586Y286476D01*
X129581Y286479D01*
X129404Y286511D01*
X94509Y286511D01*
X94506Y286511D01*
X94504Y286511D01*
X94409Y286491D01*
X94313Y286472D01*
X94310Y286470D01*
X94308Y286470D01*
X94227Y286414D01*
X94147Y286359D01*
X94145Y286357D01*
X94143Y286355D01*
X94090Y286272D01*
X94038Y286191D01*
X94037Y286188D01*
X94036Y286186D01*
X94019Y286090D01*
X94002Y285994D01*
X94003Y285991D01*
X94002Y285989D01*
X94024Y285894D01*
X94046Y285798D01*
X94047Y285796D01*
X94048Y285793D01*
X94150Y285645D01*
X95791Y284005D01*
X97029Y281017D01*
X97029Y277783D01*
X95791Y274795D01*
X93505Y272509D01*
X93170Y272370D01*
X91945Y271863D01*
X90721Y271356D01*
X90517Y271271D01*
X87283Y271271D01*
X84295Y272509D01*
X82009Y274795D01*
X80771Y277783D01*
X80771Y281017D01*
X82009Y284005D01*
X83650Y285645D01*
X83651Y285648D01*
X83653Y285649D01*
X83706Y285730D01*
X83761Y285812D01*
X83761Y285815D01*
X83762Y285817D01*
X83780Y285913D01*
X83798Y286009D01*
X83798Y286012D01*
X83798Y286014D01*
X83777Y286111D01*
X83757Y286205D01*
X83755Y286207D01*
X83754Y286210D01*
X83698Y286290D01*
X83642Y286370D01*
X83640Y286371D01*
X83638Y286373D01*
X83555Y286426D01*
X83473Y286477D01*
X83471Y286478D01*
X83468Y286479D01*
X83291Y286511D01*
X66025Y286511D01*
X66017Y286510D01*
X66010Y286511D01*
X65920Y286490D01*
X65829Y286472D01*
X65822Y286467D01*
X65814Y286465D01*
X65666Y286363D01*
X34693Y255390D01*
X34689Y255383D01*
X34683Y255379D01*
X34634Y255300D01*
X34582Y255223D01*
X34581Y255215D01*
X34577Y255208D01*
X34545Y255031D01*
X34545Y252181D01*
X33153Y248820D01*
X30580Y246247D01*
X29966Y245993D01*
X28742Y245486D01*
X28741Y245486D01*
X27517Y244979D01*
X27219Y244855D01*
X23581Y244855D01*
X20220Y246247D01*
X17647Y248820D01*
X16255Y252181D01*
X16255Y255819D01*
X17647Y259180D01*
X20220Y261753D01*
X20327Y261797D01*
X20328Y261797D01*
X21552Y262304D01*
X22777Y262812D01*
X23581Y263145D01*
X26431Y263145D01*
X26439Y263146D01*
X26446Y263145D01*
X26536Y263166D01*
X26627Y263184D01*
X26634Y263189D01*
X26642Y263191D01*
X26790Y263293D01*
X58691Y295194D01*
X60334Y296838D01*
X61461Y297305D01*
X62388Y297689D01*
X129404Y297689D01*
X129409Y297690D01*
X129414Y297689D01*
X129507Y297710D01*
X129601Y297728D01*
X129605Y297731D01*
X129610Y297732D01*
X129688Y297788D01*
X129766Y297841D01*
X129769Y297845D01*
X129773Y297848D01*
X129824Y297930D01*
X129876Y298009D01*
X129876Y298014D01*
X129879Y298019D01*
X129911Y298196D01*
X129911Y307968D01*
X129910Y307973D01*
X129911Y307978D01*
X129890Y308071D01*
X129872Y308165D01*
X129869Y308169D01*
X129868Y308174D01*
X129812Y308252D01*
X129759Y308330D01*
X129755Y308333D01*
X129752Y308337D01*
X129670Y308388D01*
X129591Y308440D01*
X129586Y308440D01*
X129581Y308443D01*
X129404Y308475D01*
X128368Y308475D01*
X127475Y309368D01*
X127475Y325632D01*
X128368Y326525D01*
X129404Y326525D01*
X129409Y326526D01*
X129414Y326525D01*
X129507Y326546D01*
X129601Y326564D01*
X129605Y326567D01*
X129610Y326568D01*
X129688Y326624D01*
X129766Y326677D01*
X129769Y326681D01*
X129773Y326684D01*
X129824Y326766D01*
X129876Y326845D01*
X129876Y326850D01*
X129879Y326855D01*
X129911Y327032D01*
X129911Y365212D01*
X130517Y366673D01*
X130518Y366682D01*
X130523Y366690D01*
X130555Y366867D01*
X130555Y370119D01*
X131947Y373480D01*
X134520Y376053D01*
X135445Y376436D01*
X136669Y376943D01*
X137881Y377445D01*
X141519Y377445D01*
X144880Y376053D01*
X147453Y373480D01*
X148845Y370119D01*
X148845Y366481D01*
X147453Y363120D01*
X144880Y360547D01*
X143859Y360124D01*
X142634Y359617D01*
X141446Y359125D01*
X141399Y359116D01*
X141395Y359113D01*
X141390Y359112D01*
X141312Y359056D01*
X141234Y359003D01*
X141231Y358999D01*
X141227Y358996D01*
X141176Y358914D01*
X141124Y358835D01*
X141124Y358830D01*
X141121Y358825D01*
X141089Y358648D01*
X141089Y327032D01*
X141090Y327027D01*
X141089Y327022D01*
X141110Y326929D01*
X141128Y326835D01*
X141131Y326831D01*
X141132Y326826D01*
X141188Y326748D01*
X141241Y326670D01*
X141245Y326667D01*
X141248Y326663D01*
X141330Y326612D01*
X141409Y326560D01*
X141414Y326560D01*
X141419Y326557D01*
X141596Y326525D01*
X142632Y326525D01*
X143525Y325632D01*
X143525Y309368D01*
X142632Y308475D01*
X141596Y308475D01*
X141591Y308474D01*
X141586Y308475D01*
X141493Y308454D01*
X141399Y308436D01*
X141395Y308433D01*
X141390Y308432D01*
X141312Y308376D01*
X141234Y308323D01*
X141231Y308319D01*
X141227Y308316D01*
X141176Y308234D01*
X141124Y308155D01*
X141124Y308150D01*
X141121Y308145D01*
X141089Y307968D01*
X141089Y285496D01*
X141090Y285491D01*
X141089Y285486D01*
X141110Y285392D01*
X141128Y285299D01*
X141131Y285295D01*
X141132Y285290D01*
X141188Y285212D01*
X141241Y285134D01*
X141245Y285131D01*
X141248Y285127D01*
X141330Y285076D01*
X141409Y285024D01*
X141414Y285024D01*
X141419Y285021D01*
X141596Y284989D01*
X158983Y284989D01*
X158991Y284990D01*
X158998Y284989D01*
X159088Y285010D01*
X159179Y285028D01*
X159186Y285033D01*
X159194Y285035D01*
X159342Y285137D01*
X160495Y286291D01*
X161367Y286652D01*
X162592Y287160D01*
X163483Y287529D01*
X166717Y287529D01*
X169705Y286291D01*
X171991Y284005D01*
X173229Y281017D01*
X173229Y277783D01*
X171991Y274795D01*
X169705Y272509D01*
X169370Y272370D01*
X168145Y271863D01*
X166921Y271356D01*
X166717Y271271D01*
X163483Y271271D01*
X160495Y272509D01*
X159342Y273663D01*
X159335Y273667D01*
X159330Y273673D01*
X159252Y273722D01*
X159175Y273774D01*
X159167Y273775D01*
X159160Y273779D01*
X158983Y273811D01*
X141596Y273811D01*
X141591Y273810D01*
X141586Y273811D01*
X141493Y273790D01*
X141399Y273772D01*
X141395Y273769D01*
X141390Y273768D01*
X141312Y273712D01*
X141234Y273659D01*
X141231Y273655D01*
X141227Y273652D01*
X141176Y273570D01*
X141124Y273491D01*
X141124Y273486D01*
X141121Y273481D01*
X141089Y273304D01*
X141089Y146425D01*
X141090Y146417D01*
X141089Y146410D01*
X141110Y146320D01*
X141128Y146229D01*
X141133Y146222D01*
X141135Y146214D01*
X141237Y146066D01*
X146862Y140442D01*
X146867Y140438D01*
X146871Y140433D01*
X146950Y140383D01*
X147029Y140331D01*
X147035Y140330D01*
X147041Y140326D01*
X147134Y140311D01*
X147226Y140293D01*
X147232Y140295D01*
X147239Y140293D01*
X147415Y140332D01*
X147976Y140564D01*
X149201Y141072D01*
X149570Y141225D01*
X155230Y141225D01*
X160458Y139059D01*
X164459Y135058D01*
X166625Y129830D01*
X166625Y124170D01*
X164459Y118942D01*
X160458Y114941D01*
X159672Y114615D01*
X158447Y114108D01*
X158302Y114048D01*
X158296Y114044D01*
X158290Y114043D01*
X158213Y113988D01*
X158135Y113936D01*
X158132Y113931D01*
X158127Y113927D01*
X158077Y113847D01*
X158025Y113769D01*
X158024Y113762D01*
X158021Y113757D01*
X157989Y113579D01*
X157989Y45654D01*
X157990Y45646D01*
X157989Y45638D01*
X158010Y45548D01*
X158028Y45457D01*
X158033Y45451D01*
X158035Y45443D01*
X158137Y45295D01*
X160153Y43280D01*
X161545Y39919D01*
X161545Y36281D01*
X160153Y32920D01*
X157580Y30347D01*
X156511Y29905D01*
X155286Y29397D01*
X154219Y28955D01*
X150581Y28955D01*
G37*
%LPD*%
%LPC*%
G36*
X55868Y180775D02*
X55868Y180775D01*
X54975Y181668D01*
X54975Y193932D01*
X55868Y194825D01*
X57404Y194825D01*
X57409Y194826D01*
X57414Y194825D01*
X57507Y194846D01*
X57601Y194864D01*
X57605Y194867D01*
X57610Y194868D01*
X57688Y194924D01*
X57766Y194977D01*
X57769Y194981D01*
X57773Y194984D01*
X57824Y195066D01*
X57876Y195145D01*
X57876Y195150D01*
X57879Y195155D01*
X57911Y195332D01*
X57911Y222504D01*
X57910Y222509D01*
X57911Y222514D01*
X57890Y222607D01*
X57872Y222701D01*
X57869Y222705D01*
X57868Y222710D01*
X57812Y222788D01*
X57759Y222866D01*
X57755Y222869D01*
X57752Y222873D01*
X57670Y222924D01*
X57591Y222976D01*
X57586Y222976D01*
X57581Y222979D01*
X57404Y223011D01*
X32954Y223011D01*
X32946Y223010D01*
X32939Y223011D01*
X32849Y222990D01*
X32757Y222972D01*
X32751Y222967D01*
X32743Y222965D01*
X32595Y222863D01*
X30580Y220847D01*
X30057Y220631D01*
X28832Y220123D01*
X27607Y219616D01*
X27219Y219455D01*
X23581Y219455D01*
X20220Y220847D01*
X17647Y223420D01*
X16255Y226781D01*
X16255Y230419D01*
X17647Y233780D01*
X20220Y236353D01*
X20418Y236435D01*
X21643Y236942D01*
X22867Y237449D01*
X23581Y237745D01*
X27219Y237745D01*
X30580Y236353D01*
X32595Y234337D01*
X32602Y234333D01*
X32606Y234327D01*
X32685Y234278D01*
X32762Y234226D01*
X32770Y234225D01*
X32777Y234221D01*
X32954Y234189D01*
X82783Y234189D01*
X82791Y234190D01*
X82798Y234189D01*
X82888Y234210D01*
X82979Y234228D01*
X82986Y234233D01*
X82994Y234235D01*
X83142Y234337D01*
X84295Y235491D01*
X85348Y235927D01*
X86573Y236435D01*
X87283Y236729D01*
X90517Y236729D01*
X93505Y235491D01*
X95791Y233205D01*
X97029Y230217D01*
X97029Y226983D01*
X95791Y223995D01*
X93505Y221709D01*
X93351Y221645D01*
X92126Y221138D01*
X90902Y220631D01*
X90517Y220471D01*
X87283Y220471D01*
X84295Y221709D01*
X83142Y222863D01*
X83135Y222867D01*
X83130Y222873D01*
X83052Y222922D01*
X82975Y222974D01*
X82967Y222975D01*
X82960Y222979D01*
X82783Y223011D01*
X69596Y223011D01*
X69591Y223010D01*
X69586Y223011D01*
X69493Y222990D01*
X69399Y222972D01*
X69395Y222969D01*
X69390Y222968D01*
X69312Y222912D01*
X69234Y222859D01*
X69231Y222855D01*
X69227Y222852D01*
X69176Y222770D01*
X69124Y222691D01*
X69124Y222686D01*
X69121Y222681D01*
X69089Y222504D01*
X69089Y195332D01*
X69090Y195327D01*
X69089Y195322D01*
X69110Y195229D01*
X69128Y195135D01*
X69131Y195131D01*
X69132Y195126D01*
X69188Y195048D01*
X69241Y194970D01*
X69245Y194967D01*
X69248Y194963D01*
X69330Y194912D01*
X69409Y194860D01*
X69414Y194860D01*
X69419Y194857D01*
X69596Y194825D01*
X71132Y194825D01*
X72025Y193932D01*
X72025Y181668D01*
X71132Y180775D01*
X55868Y180775D01*
G37*
%LPD*%
%LPC*%
G36*
X202088Y134111D02*
X202088Y134111D01*
X201501Y134355D01*
X201492Y134356D01*
X201484Y134361D01*
X201307Y134393D01*
X201002Y134393D01*
X200786Y134609D01*
X200779Y134614D01*
X200773Y134621D01*
X200622Y134719D01*
X200034Y134962D01*
X198462Y136534D01*
X198219Y137122D01*
X198214Y137130D01*
X198211Y137138D01*
X198109Y137286D01*
X197893Y137502D01*
X197893Y137807D01*
X197891Y137816D01*
X197893Y137825D01*
X197855Y138001D01*
X197611Y138588D01*
X197611Y198368D01*
X197610Y198373D01*
X197611Y198378D01*
X197590Y198471D01*
X197572Y198565D01*
X197569Y198569D01*
X197568Y198574D01*
X197512Y198652D01*
X197459Y198730D01*
X197455Y198733D01*
X197452Y198737D01*
X197370Y198788D01*
X197291Y198840D01*
X197286Y198840D01*
X197281Y198843D01*
X197104Y198875D01*
X195568Y198875D01*
X194675Y199768D01*
X194675Y212032D01*
X195568Y212925D01*
X210832Y212925D01*
X211725Y212032D01*
X211725Y199768D01*
X210832Y198875D01*
X209296Y198875D01*
X209291Y198874D01*
X209286Y198875D01*
X209193Y198854D01*
X209099Y198836D01*
X209095Y198833D01*
X209090Y198832D01*
X209012Y198776D01*
X208934Y198723D01*
X208931Y198719D01*
X208927Y198716D01*
X208876Y198634D01*
X208824Y198555D01*
X208824Y198550D01*
X208821Y198545D01*
X208789Y198368D01*
X208789Y138588D01*
X208545Y138001D01*
X208544Y137992D01*
X208539Y137984D01*
X208507Y137807D01*
X208507Y137502D01*
X208291Y137286D01*
X208286Y137279D01*
X208279Y137273D01*
X208181Y137122D01*
X207938Y136534D01*
X206366Y134962D01*
X205778Y134719D01*
X205770Y134714D01*
X205762Y134711D01*
X205614Y134609D01*
X205398Y134393D01*
X205093Y134393D01*
X205084Y134391D01*
X205075Y134393D01*
X204899Y134355D01*
X204897Y134354D01*
X204312Y134111D01*
X202088Y134111D01*
G37*
%LPD*%
%LPC*%
G36*
X195568Y218875D02*
X195568Y218875D01*
X194675Y219768D01*
X194675Y222504D01*
X194674Y222509D01*
X194675Y222514D01*
X194654Y222607D01*
X194636Y222701D01*
X194633Y222705D01*
X194632Y222710D01*
X194576Y222788D01*
X194523Y222866D01*
X194519Y222869D01*
X194516Y222873D01*
X194434Y222924D01*
X194355Y222976D01*
X194350Y222976D01*
X194345Y222979D01*
X194168Y223011D01*
X171217Y223011D01*
X171209Y223010D01*
X171202Y223011D01*
X171112Y222990D01*
X171021Y222972D01*
X171014Y222967D01*
X171006Y222965D01*
X170858Y222863D01*
X169705Y221709D01*
X169551Y221645D01*
X168326Y221138D01*
X167102Y220631D01*
X166717Y220471D01*
X163483Y220471D01*
X160495Y221709D01*
X158209Y223995D01*
X156971Y226983D01*
X156971Y230217D01*
X158209Y233205D01*
X160495Y235491D01*
X161548Y235927D01*
X162773Y236435D01*
X163483Y236729D01*
X166717Y236729D01*
X169705Y235491D01*
X170858Y234337D01*
X170865Y234333D01*
X170870Y234327D01*
X170948Y234278D01*
X171025Y234226D01*
X171033Y234225D01*
X171040Y234221D01*
X171217Y234189D01*
X201612Y234189D01*
X203666Y233338D01*
X203930Y233073D01*
X203937Y233069D01*
X203941Y233063D01*
X204020Y233014D01*
X204097Y232962D01*
X204105Y232961D01*
X204112Y232957D01*
X204289Y232925D01*
X210832Y232925D01*
X211725Y232032D01*
X211725Y219768D01*
X210832Y218875D01*
X195568Y218875D01*
G37*
%LPD*%
%LPC*%
G36*
X125181Y28955D02*
X125181Y28955D01*
X121820Y30347D01*
X119247Y32920D01*
X117855Y36281D01*
X117855Y39919D01*
X119247Y43280D01*
X121820Y45853D01*
X122697Y46216D01*
X123922Y46723D01*
X125146Y47230D01*
X125181Y47245D01*
X128819Y47245D01*
X132180Y45853D01*
X134753Y43280D01*
X136145Y39919D01*
X136145Y36281D01*
X134753Y32920D01*
X132180Y30347D01*
X131111Y29905D01*
X129886Y29397D01*
X128819Y28955D01*
X125181Y28955D01*
G37*
%LPD*%
%LPC*%
G36*
X87283Y245871D02*
X87283Y245871D01*
X84295Y247109D01*
X82009Y249395D01*
X80771Y252383D01*
X80771Y255617D01*
X82009Y258605D01*
X84295Y260891D01*
X85258Y261290D01*
X86482Y261797D01*
X86483Y261797D01*
X87283Y262129D01*
X90517Y262129D01*
X93505Y260891D01*
X95791Y258605D01*
X97029Y255617D01*
X97029Y252383D01*
X95791Y249395D01*
X93505Y247109D01*
X93260Y247008D01*
X92036Y246500D01*
X90811Y245993D01*
X90517Y245871D01*
X87283Y245871D01*
G37*
%LPD*%
%LPC*%
G36*
X163483Y245871D02*
X163483Y245871D01*
X160495Y247109D01*
X158209Y249395D01*
X156971Y252383D01*
X156971Y255617D01*
X158209Y258605D01*
X160495Y260891D01*
X161458Y261290D01*
X162682Y261797D01*
X162683Y261797D01*
X163483Y262129D01*
X166717Y262129D01*
X169705Y260891D01*
X171991Y258605D01*
X173229Y255617D01*
X173229Y252383D01*
X171991Y249395D01*
X169705Y247109D01*
X169460Y247008D01*
X168236Y246500D01*
X167011Y245993D01*
X166717Y245871D01*
X163483Y245871D01*
G37*
%LPD*%
%LPC*%
G36*
X163483Y195071D02*
X163483Y195071D01*
X160495Y196309D01*
X158209Y198595D01*
X156971Y201583D01*
X156971Y204817D01*
X158209Y207805D01*
X160495Y210091D01*
X161639Y210565D01*
X162863Y211072D01*
X162864Y211072D01*
X163483Y211329D01*
X166717Y211329D01*
X169705Y210091D01*
X171991Y207805D01*
X173229Y204817D01*
X173229Y201583D01*
X171991Y198595D01*
X169705Y196309D01*
X169641Y196283D01*
X168417Y195775D01*
X167192Y195268D01*
X166717Y195071D01*
X163483Y195071D01*
G37*
%LPD*%
D10*
X135500Y317500D03*
X118500Y317500D03*
D11*
X152400Y127000D03*
D12*
X101600Y127000D03*
D13*
X63500Y187800D03*
X63500Y167800D03*
X203200Y225900D03*
X203200Y205900D03*
D14*
X88900Y279400D03*
X88900Y254000D03*
X165100Y254000D03*
X165100Y279400D03*
X88900Y228600D03*
X88900Y203200D03*
X165100Y228600D03*
X165100Y203200D03*
D15*
X139700Y368300D03*
X114300Y368300D03*
X25400Y228600D03*
X25400Y254000D03*
X101600Y38100D03*
X127000Y38100D03*
X152400Y38100D03*
D16*
X203200Y225900D02*
X200500Y228600D01*
X165100Y228600D01*
D17*
X203200Y139700D03*
D16*
X203200Y205900D01*
X135500Y143900D02*
X152400Y127000D01*
X135500Y143900D02*
X135500Y254000D01*
X135500Y279400D02*
X135500Y292100D01*
X135500Y279400D02*
X135500Y254000D01*
X135500Y279400D02*
X135500Y317500D01*
X135500Y279400D02*
X165100Y279400D01*
X152400Y127000D02*
X152400Y38100D01*
X135500Y317500D02*
X135500Y364100D01*
X139700Y368300D01*
X135500Y292100D02*
X63500Y292100D01*
X25400Y254000D01*
X63500Y228600D02*
X88900Y228600D01*
X63500Y228600D02*
X25400Y228600D01*
X63500Y228600D02*
X63500Y187800D01*
M02*
