G04 EAGLE Gerber RS-274X export*
G75*
%MOMM*%
%FSLAX34Y34*%
%LPD*%
%IN*%
%IPPOS*%
%AMOC8*
5,1,8,0,0,1.08239X$1,22.5*%
G01*
%ADD10C,0.254000*%


D10*
X0Y12700D02*
X48Y11593D01*
X193Y10495D01*
X433Y9413D01*
X766Y8356D01*
X1190Y7333D01*
X1701Y6350D01*
X2297Y5416D01*
X2971Y4537D01*
X3720Y3720D01*
X4537Y2971D01*
X5416Y2297D01*
X6350Y1701D01*
X7333Y1190D01*
X8356Y766D01*
X9413Y433D01*
X10495Y193D01*
X11593Y48D01*
X12700Y0D01*
X215900Y0D01*
X217007Y48D01*
X218105Y193D01*
X219187Y433D01*
X220244Y766D01*
X221267Y1190D01*
X222250Y1701D01*
X223184Y2297D01*
X224063Y2971D01*
X224880Y3720D01*
X225629Y4537D01*
X226303Y5416D01*
X226899Y6350D01*
X227410Y7333D01*
X227834Y8356D01*
X228167Y9413D01*
X228407Y10495D01*
X228552Y11593D01*
X228600Y12700D01*
X228600Y393700D01*
X228552Y394807D01*
X228407Y395905D01*
X228167Y396987D01*
X227834Y398044D01*
X227410Y399067D01*
X226899Y400050D01*
X226303Y400984D01*
X225629Y401863D01*
X224880Y402680D01*
X224063Y403429D01*
X223184Y404103D01*
X222250Y404699D01*
X221267Y405210D01*
X220244Y405634D01*
X219187Y405967D01*
X218105Y406207D01*
X217007Y406352D01*
X215900Y406400D01*
X12700Y406400D01*
X11593Y406352D01*
X10495Y406207D01*
X9413Y405967D01*
X8356Y405634D01*
X7333Y405210D01*
X6350Y404699D01*
X5416Y404103D01*
X4537Y403429D01*
X3720Y402680D01*
X2971Y401863D01*
X2297Y400984D01*
X1701Y400050D01*
X1190Y399067D01*
X766Y398044D01*
X433Y396987D01*
X193Y395905D01*
X48Y394807D01*
X0Y393700D01*
X0Y12700D01*
M02*
