G04 EAGLE Gerber RS-274X export*
G75*
%MOMM*%
%FSLAX34Y34*%
%LPD*%
%INSilkscreen Top*%
%IPPOS*%
%AMOC8*
5,1,8,0,0,1.08239X$1,22.5*%
G01*
%ADD10C,0.152400*%
%ADD11C,0.101600*%
%ADD12R,0.635000X2.286000*%
%ADD13C,0.127000*%
%ADD14R,1.400000X0.650000*%
%ADD15C,0.254000*%
%ADD16C,0.200000*%


D10*
X47498Y194861D02*
X54102Y197063D01*
X47498Y199264D01*
X54102Y203975D02*
X54102Y205443D01*
X54102Y203975D02*
X54100Y203901D01*
X54094Y203826D01*
X54085Y203753D01*
X54072Y203679D01*
X54055Y203607D01*
X54035Y203536D01*
X54011Y203465D01*
X53983Y203396D01*
X53952Y203329D01*
X53918Y203263D01*
X53880Y203198D01*
X53839Y203136D01*
X53795Y203076D01*
X53748Y203019D01*
X53698Y202964D01*
X53645Y202911D01*
X53590Y202861D01*
X53533Y202814D01*
X53473Y202770D01*
X53411Y202729D01*
X53346Y202691D01*
X53281Y202657D01*
X53213Y202626D01*
X53144Y202598D01*
X53073Y202574D01*
X53002Y202554D01*
X52930Y202537D01*
X52856Y202524D01*
X52783Y202515D01*
X52708Y202509D01*
X52634Y202507D01*
X52634Y202508D02*
X48966Y202508D01*
X48966Y202507D02*
X48892Y202509D01*
X48817Y202515D01*
X48744Y202524D01*
X48670Y202537D01*
X48598Y202554D01*
X48527Y202574D01*
X48456Y202598D01*
X48387Y202626D01*
X48320Y202657D01*
X48254Y202691D01*
X48189Y202729D01*
X48127Y202770D01*
X48067Y202814D01*
X48010Y202861D01*
X47955Y202911D01*
X47902Y202964D01*
X47852Y203019D01*
X47805Y203076D01*
X47761Y203136D01*
X47720Y203198D01*
X47682Y203263D01*
X47648Y203328D01*
X47617Y203396D01*
X47589Y203465D01*
X47565Y203536D01*
X47545Y203607D01*
X47528Y203679D01*
X47515Y203753D01*
X47506Y203826D01*
X47500Y203901D01*
X47498Y203975D01*
X47498Y205443D01*
X54102Y210071D02*
X54102Y211539D01*
X54102Y210071D02*
X54100Y209997D01*
X54094Y209922D01*
X54085Y209849D01*
X54072Y209775D01*
X54055Y209703D01*
X54035Y209632D01*
X54011Y209561D01*
X53983Y209492D01*
X53952Y209425D01*
X53918Y209359D01*
X53880Y209294D01*
X53839Y209232D01*
X53795Y209172D01*
X53748Y209115D01*
X53698Y209060D01*
X53645Y209007D01*
X53590Y208957D01*
X53533Y208910D01*
X53473Y208866D01*
X53411Y208825D01*
X53346Y208787D01*
X53281Y208753D01*
X53213Y208722D01*
X53144Y208694D01*
X53073Y208670D01*
X53002Y208650D01*
X52930Y208633D01*
X52856Y208620D01*
X52783Y208611D01*
X52708Y208605D01*
X52634Y208603D01*
X52634Y208604D02*
X48966Y208604D01*
X48966Y208603D02*
X48892Y208605D01*
X48817Y208611D01*
X48744Y208620D01*
X48670Y208633D01*
X48598Y208650D01*
X48527Y208670D01*
X48456Y208694D01*
X48387Y208722D01*
X48320Y208753D01*
X48254Y208787D01*
X48189Y208825D01*
X48127Y208866D01*
X48067Y208910D01*
X48010Y208957D01*
X47955Y209007D01*
X47902Y209060D01*
X47852Y209115D01*
X47805Y209172D01*
X47761Y209232D01*
X47720Y209294D01*
X47682Y209359D01*
X47648Y209424D01*
X47617Y209492D01*
X47589Y209561D01*
X47565Y209632D01*
X47545Y209703D01*
X47528Y209775D01*
X47515Y209849D01*
X47506Y209922D01*
X47500Y209997D01*
X47498Y210071D01*
X47498Y211539D01*
X94531Y13067D02*
X95632Y13067D01*
X95632Y9398D01*
X93430Y9398D01*
X93356Y9400D01*
X93281Y9406D01*
X93208Y9415D01*
X93134Y9428D01*
X93062Y9445D01*
X92991Y9465D01*
X92920Y9489D01*
X92851Y9517D01*
X92784Y9548D01*
X92718Y9582D01*
X92653Y9620D01*
X92591Y9661D01*
X92531Y9705D01*
X92474Y9752D01*
X92419Y9802D01*
X92366Y9855D01*
X92316Y9910D01*
X92269Y9967D01*
X92225Y10027D01*
X92184Y10089D01*
X92146Y10154D01*
X92112Y10220D01*
X92081Y10287D01*
X92053Y10356D01*
X92029Y10427D01*
X92009Y10498D01*
X91992Y10570D01*
X91979Y10644D01*
X91970Y10717D01*
X91964Y10792D01*
X91962Y10866D01*
X91963Y10866D02*
X91963Y14534D01*
X91962Y14534D02*
X91964Y14608D01*
X91970Y14683D01*
X91979Y14756D01*
X91992Y14830D01*
X92009Y14902D01*
X92029Y14973D01*
X92053Y15044D01*
X92081Y15113D01*
X92112Y15180D01*
X92146Y15246D01*
X92184Y15311D01*
X92225Y15373D01*
X92269Y15433D01*
X92316Y15490D01*
X92366Y15545D01*
X92419Y15598D01*
X92474Y15648D01*
X92531Y15695D01*
X92591Y15739D01*
X92653Y15780D01*
X92718Y15818D01*
X92783Y15852D01*
X92851Y15883D01*
X92920Y15911D01*
X92991Y15935D01*
X93062Y15955D01*
X93134Y15972D01*
X93208Y15985D01*
X93281Y15994D01*
X93356Y16000D01*
X93430Y16002D01*
X95632Y16002D01*
X99766Y16002D02*
X99766Y9398D01*
X103434Y9398D02*
X99766Y16002D01*
X103434Y16002D02*
X103434Y9398D01*
X107568Y9398D02*
X107568Y16002D01*
X109403Y16002D01*
X109488Y16000D01*
X109572Y15994D01*
X109656Y15984D01*
X109740Y15971D01*
X109823Y15953D01*
X109905Y15932D01*
X109986Y15907D01*
X110066Y15878D01*
X110144Y15846D01*
X110220Y15810D01*
X110295Y15770D01*
X110368Y15727D01*
X110439Y15681D01*
X110508Y15632D01*
X110575Y15579D01*
X110639Y15523D01*
X110700Y15465D01*
X110758Y15404D01*
X110814Y15340D01*
X110867Y15273D01*
X110916Y15204D01*
X110962Y15133D01*
X111005Y15060D01*
X111045Y14985D01*
X111081Y14909D01*
X111113Y14831D01*
X111142Y14751D01*
X111167Y14670D01*
X111188Y14588D01*
X111206Y14505D01*
X111219Y14421D01*
X111229Y14337D01*
X111235Y14253D01*
X111237Y14168D01*
X111237Y11232D01*
X111235Y11147D01*
X111229Y11063D01*
X111219Y10979D01*
X111206Y10895D01*
X111188Y10812D01*
X111167Y10730D01*
X111142Y10649D01*
X111113Y10569D01*
X111081Y10491D01*
X111045Y10415D01*
X111005Y10340D01*
X110962Y10267D01*
X110916Y10196D01*
X110867Y10127D01*
X110814Y10060D01*
X110758Y9996D01*
X110700Y9935D01*
X110639Y9877D01*
X110575Y9821D01*
X110508Y9768D01*
X110439Y9719D01*
X110368Y9673D01*
X110295Y9630D01*
X110220Y9590D01*
X110144Y9554D01*
X110066Y9522D01*
X109986Y9493D01*
X109905Y9468D01*
X109823Y9447D01*
X109740Y9429D01*
X109656Y9416D01*
X109572Y9406D01*
X109488Y9400D01*
X109403Y9398D01*
X107568Y9398D01*
X117972Y9398D02*
X117972Y16002D01*
X119807Y16002D01*
X119892Y16000D01*
X119976Y15994D01*
X120060Y15984D01*
X120144Y15971D01*
X120227Y15953D01*
X120309Y15932D01*
X120390Y15907D01*
X120470Y15878D01*
X120548Y15846D01*
X120624Y15810D01*
X120699Y15770D01*
X120772Y15727D01*
X120843Y15681D01*
X120912Y15632D01*
X120979Y15579D01*
X121043Y15523D01*
X121104Y15465D01*
X121162Y15404D01*
X121218Y15340D01*
X121271Y15273D01*
X121320Y15204D01*
X121366Y15133D01*
X121409Y15060D01*
X121449Y14985D01*
X121485Y14909D01*
X121517Y14831D01*
X121546Y14751D01*
X121571Y14670D01*
X121592Y14588D01*
X121610Y14505D01*
X121623Y14421D01*
X121633Y14337D01*
X121639Y14253D01*
X121641Y14168D01*
X121641Y11232D01*
X121639Y11147D01*
X121633Y11063D01*
X121623Y10979D01*
X121610Y10895D01*
X121592Y10812D01*
X121571Y10730D01*
X121546Y10649D01*
X121517Y10569D01*
X121485Y10491D01*
X121449Y10415D01*
X121409Y10340D01*
X121366Y10267D01*
X121320Y10196D01*
X121271Y10127D01*
X121218Y10060D01*
X121162Y9996D01*
X121104Y9935D01*
X121043Y9877D01*
X120979Y9821D01*
X120912Y9768D01*
X120843Y9719D01*
X120772Y9673D01*
X120699Y9630D01*
X120624Y9590D01*
X120548Y9554D01*
X120470Y9522D01*
X120390Y9493D01*
X120309Y9468D01*
X120227Y9447D01*
X120144Y9429D01*
X120060Y9416D01*
X119976Y9406D01*
X119892Y9400D01*
X119807Y9398D01*
X117972Y9398D01*
X125164Y9398D02*
X127366Y16002D01*
X129567Y9398D01*
X129017Y11049D02*
X125715Y11049D01*
X134193Y9398D02*
X134193Y16002D01*
X132359Y16002D02*
X136028Y16002D01*
X144061Y16002D02*
X146263Y9398D01*
X148464Y16002D01*
X153175Y9398D02*
X154643Y9398D01*
X153175Y9398D02*
X153101Y9400D01*
X153026Y9406D01*
X152953Y9415D01*
X152879Y9428D01*
X152807Y9445D01*
X152736Y9465D01*
X152665Y9489D01*
X152596Y9517D01*
X152529Y9548D01*
X152463Y9582D01*
X152398Y9620D01*
X152336Y9661D01*
X152276Y9705D01*
X152219Y9752D01*
X152164Y9802D01*
X152111Y9855D01*
X152061Y9910D01*
X152014Y9967D01*
X151970Y10027D01*
X151929Y10089D01*
X151891Y10154D01*
X151857Y10220D01*
X151826Y10287D01*
X151798Y10356D01*
X151774Y10427D01*
X151754Y10498D01*
X151737Y10570D01*
X151724Y10644D01*
X151715Y10717D01*
X151709Y10792D01*
X151707Y10866D01*
X151708Y10866D02*
X151708Y14534D01*
X151707Y14534D02*
X151709Y14608D01*
X151715Y14683D01*
X151724Y14756D01*
X151737Y14830D01*
X151754Y14902D01*
X151774Y14973D01*
X151798Y15044D01*
X151826Y15113D01*
X151857Y15180D01*
X151891Y15246D01*
X151929Y15311D01*
X151970Y15373D01*
X152014Y15433D01*
X152061Y15490D01*
X152111Y15545D01*
X152164Y15598D01*
X152219Y15648D01*
X152276Y15695D01*
X152336Y15739D01*
X152398Y15780D01*
X152463Y15818D01*
X152528Y15852D01*
X152596Y15883D01*
X152665Y15911D01*
X152736Y15935D01*
X152807Y15955D01*
X152879Y15972D01*
X152953Y15985D01*
X153026Y15994D01*
X153101Y16000D01*
X153175Y16002D01*
X154643Y16002D01*
X159271Y9398D02*
X160739Y9398D01*
X159271Y9398D02*
X159197Y9400D01*
X159122Y9406D01*
X159049Y9415D01*
X158975Y9428D01*
X158903Y9445D01*
X158832Y9465D01*
X158761Y9489D01*
X158692Y9517D01*
X158625Y9548D01*
X158559Y9582D01*
X158494Y9620D01*
X158432Y9661D01*
X158372Y9705D01*
X158315Y9752D01*
X158260Y9802D01*
X158207Y9855D01*
X158157Y9910D01*
X158110Y9967D01*
X158066Y10027D01*
X158025Y10089D01*
X157987Y10154D01*
X157953Y10220D01*
X157922Y10287D01*
X157894Y10356D01*
X157870Y10427D01*
X157850Y10498D01*
X157833Y10570D01*
X157820Y10644D01*
X157811Y10717D01*
X157805Y10792D01*
X157803Y10866D01*
X157804Y10866D02*
X157804Y14534D01*
X157803Y14534D02*
X157805Y14608D01*
X157811Y14683D01*
X157820Y14756D01*
X157833Y14830D01*
X157850Y14902D01*
X157870Y14973D01*
X157894Y15044D01*
X157922Y15113D01*
X157953Y15180D01*
X157987Y15246D01*
X158025Y15311D01*
X158066Y15373D01*
X158110Y15433D01*
X158157Y15490D01*
X158207Y15545D01*
X158260Y15598D01*
X158315Y15648D01*
X158372Y15695D01*
X158432Y15739D01*
X158494Y15780D01*
X158559Y15818D01*
X158624Y15852D01*
X158692Y15883D01*
X158761Y15911D01*
X158832Y15935D01*
X158903Y15955D01*
X158975Y15972D01*
X159049Y15985D01*
X159122Y15994D01*
X159197Y16000D01*
X159271Y16002D01*
X160739Y16002D01*
X50433Y221531D02*
X50433Y222632D01*
X54102Y222632D01*
X54102Y220430D01*
X54100Y220356D01*
X54094Y220281D01*
X54085Y220208D01*
X54072Y220134D01*
X54055Y220062D01*
X54035Y219991D01*
X54011Y219920D01*
X53983Y219851D01*
X53952Y219784D01*
X53918Y219718D01*
X53880Y219653D01*
X53839Y219591D01*
X53795Y219531D01*
X53748Y219474D01*
X53698Y219419D01*
X53645Y219366D01*
X53590Y219316D01*
X53533Y219269D01*
X53473Y219225D01*
X53411Y219184D01*
X53346Y219146D01*
X53281Y219112D01*
X53213Y219081D01*
X53144Y219053D01*
X53073Y219029D01*
X53002Y219009D01*
X52930Y218992D01*
X52856Y218979D01*
X52783Y218970D01*
X52708Y218964D01*
X52634Y218962D01*
X52634Y218963D02*
X48966Y218963D01*
X48966Y218962D02*
X48892Y218964D01*
X48817Y218970D01*
X48744Y218979D01*
X48670Y218992D01*
X48598Y219009D01*
X48527Y219029D01*
X48456Y219053D01*
X48387Y219081D01*
X48320Y219112D01*
X48254Y219146D01*
X48189Y219184D01*
X48127Y219225D01*
X48067Y219269D01*
X48010Y219316D01*
X47955Y219366D01*
X47902Y219419D01*
X47852Y219474D01*
X47805Y219531D01*
X47761Y219591D01*
X47720Y219653D01*
X47682Y219718D01*
X47648Y219783D01*
X47617Y219851D01*
X47589Y219920D01*
X47565Y219991D01*
X47545Y220062D01*
X47528Y220134D01*
X47515Y220208D01*
X47506Y220281D01*
X47500Y220356D01*
X47498Y220430D01*
X47498Y222632D01*
X47498Y226766D02*
X54102Y226766D01*
X54102Y230434D02*
X47498Y226766D01*
X47498Y230434D02*
X54102Y230434D01*
X54102Y234568D02*
X47498Y234568D01*
X47498Y236403D01*
X47500Y236488D01*
X47506Y236572D01*
X47516Y236656D01*
X47529Y236740D01*
X47547Y236823D01*
X47568Y236905D01*
X47593Y236986D01*
X47622Y237066D01*
X47654Y237144D01*
X47690Y237220D01*
X47730Y237295D01*
X47773Y237368D01*
X47819Y237439D01*
X47868Y237508D01*
X47921Y237575D01*
X47977Y237639D01*
X48035Y237700D01*
X48096Y237758D01*
X48160Y237814D01*
X48227Y237867D01*
X48296Y237916D01*
X48367Y237962D01*
X48440Y238005D01*
X48515Y238045D01*
X48591Y238081D01*
X48670Y238113D01*
X48749Y238142D01*
X48830Y238167D01*
X48912Y238188D01*
X48995Y238206D01*
X49079Y238219D01*
X49163Y238229D01*
X49247Y238235D01*
X49332Y238237D01*
X52268Y238237D01*
X52353Y238235D01*
X52437Y238229D01*
X52521Y238219D01*
X52605Y238206D01*
X52688Y238188D01*
X52770Y238167D01*
X52851Y238142D01*
X52931Y238113D01*
X53009Y238081D01*
X53085Y238045D01*
X53160Y238005D01*
X53233Y237962D01*
X53304Y237916D01*
X53373Y237867D01*
X53440Y237814D01*
X53504Y237758D01*
X53565Y237700D01*
X53623Y237639D01*
X53679Y237575D01*
X53732Y237508D01*
X53781Y237439D01*
X53827Y237368D01*
X53870Y237295D01*
X53910Y237220D01*
X53946Y237144D01*
X53978Y237066D01*
X54007Y236986D01*
X54032Y236905D01*
X54053Y236823D01*
X54071Y236740D01*
X54084Y236656D01*
X54094Y236572D01*
X54100Y236488D01*
X54102Y236403D01*
X54102Y234568D01*
X107231Y394067D02*
X108332Y394067D01*
X108332Y390398D01*
X106130Y390398D01*
X106056Y390400D01*
X105981Y390406D01*
X105908Y390415D01*
X105834Y390428D01*
X105762Y390445D01*
X105691Y390465D01*
X105620Y390489D01*
X105551Y390517D01*
X105484Y390548D01*
X105418Y390582D01*
X105353Y390620D01*
X105291Y390661D01*
X105231Y390705D01*
X105174Y390752D01*
X105119Y390802D01*
X105066Y390855D01*
X105016Y390910D01*
X104969Y390967D01*
X104925Y391027D01*
X104884Y391089D01*
X104846Y391154D01*
X104812Y391220D01*
X104781Y391287D01*
X104753Y391356D01*
X104729Y391427D01*
X104709Y391498D01*
X104692Y391570D01*
X104679Y391644D01*
X104670Y391717D01*
X104664Y391792D01*
X104662Y391866D01*
X104663Y391866D02*
X104663Y395534D01*
X104662Y395534D02*
X104664Y395608D01*
X104670Y395683D01*
X104679Y395756D01*
X104692Y395830D01*
X104709Y395902D01*
X104729Y395973D01*
X104753Y396044D01*
X104781Y396113D01*
X104812Y396180D01*
X104846Y396246D01*
X104884Y396311D01*
X104925Y396373D01*
X104969Y396433D01*
X105016Y396490D01*
X105066Y396545D01*
X105119Y396598D01*
X105174Y396648D01*
X105231Y396695D01*
X105291Y396739D01*
X105353Y396780D01*
X105418Y396818D01*
X105483Y396852D01*
X105551Y396883D01*
X105620Y396911D01*
X105691Y396935D01*
X105762Y396955D01*
X105834Y396972D01*
X105908Y396985D01*
X105981Y396994D01*
X106056Y397000D01*
X106130Y397002D01*
X108332Y397002D01*
X112466Y397002D02*
X112466Y390398D01*
X116134Y390398D02*
X112466Y397002D01*
X116134Y397002D02*
X116134Y390398D01*
X120268Y390398D02*
X120268Y397002D01*
X122103Y397002D01*
X122188Y397000D01*
X122272Y396994D01*
X122356Y396984D01*
X122440Y396971D01*
X122523Y396953D01*
X122605Y396932D01*
X122686Y396907D01*
X122766Y396878D01*
X122844Y396846D01*
X122920Y396810D01*
X122995Y396770D01*
X123068Y396727D01*
X123139Y396681D01*
X123208Y396632D01*
X123275Y396579D01*
X123339Y396523D01*
X123400Y396465D01*
X123458Y396404D01*
X123514Y396340D01*
X123567Y396273D01*
X123616Y396204D01*
X123662Y396133D01*
X123705Y396060D01*
X123745Y395985D01*
X123781Y395909D01*
X123813Y395831D01*
X123842Y395751D01*
X123867Y395670D01*
X123888Y395588D01*
X123906Y395505D01*
X123919Y395421D01*
X123929Y395337D01*
X123935Y395253D01*
X123937Y395168D01*
X123937Y392232D01*
X123935Y392147D01*
X123929Y392063D01*
X123919Y391979D01*
X123906Y391895D01*
X123888Y391812D01*
X123867Y391730D01*
X123842Y391649D01*
X123813Y391569D01*
X123781Y391491D01*
X123745Y391415D01*
X123705Y391340D01*
X123662Y391267D01*
X123616Y391196D01*
X123567Y391127D01*
X123514Y391060D01*
X123458Y390996D01*
X123400Y390935D01*
X123339Y390877D01*
X123275Y390821D01*
X123208Y390768D01*
X123139Y390719D01*
X123068Y390673D01*
X122995Y390630D01*
X122920Y390590D01*
X122844Y390554D01*
X122766Y390522D01*
X122686Y390493D01*
X122605Y390468D01*
X122523Y390447D01*
X122440Y390429D01*
X122356Y390416D01*
X122272Y390406D01*
X122188Y390400D01*
X122103Y390398D01*
X120268Y390398D01*
X130001Y397002D02*
X132202Y390398D01*
X134404Y397002D01*
X137927Y397002D02*
X137927Y390398D01*
X137927Y397002D02*
X139762Y397002D01*
X139847Y397000D01*
X139931Y396994D01*
X140015Y396984D01*
X140099Y396971D01*
X140182Y396953D01*
X140264Y396932D01*
X140345Y396907D01*
X140425Y396878D01*
X140503Y396846D01*
X140579Y396810D01*
X140654Y396770D01*
X140727Y396727D01*
X140798Y396681D01*
X140867Y396632D01*
X140934Y396579D01*
X140998Y396523D01*
X141059Y396465D01*
X141117Y396404D01*
X141173Y396340D01*
X141226Y396273D01*
X141275Y396204D01*
X141321Y396133D01*
X141364Y396060D01*
X141404Y395985D01*
X141440Y395909D01*
X141472Y395831D01*
X141501Y395751D01*
X141526Y395670D01*
X141547Y395588D01*
X141565Y395505D01*
X141578Y395421D01*
X141588Y395337D01*
X141594Y395253D01*
X141596Y395168D01*
X141596Y392232D01*
X141594Y392147D01*
X141588Y392063D01*
X141578Y391979D01*
X141565Y391895D01*
X141547Y391812D01*
X141526Y391730D01*
X141501Y391649D01*
X141472Y391569D01*
X141440Y391491D01*
X141404Y391415D01*
X141364Y391340D01*
X141321Y391267D01*
X141275Y391196D01*
X141226Y391127D01*
X141173Y391060D01*
X141117Y390996D01*
X141059Y390935D01*
X140998Y390877D01*
X140934Y390821D01*
X140867Y390768D01*
X140798Y390719D01*
X140727Y390673D01*
X140654Y390630D01*
X140579Y390590D01*
X140503Y390554D01*
X140425Y390522D01*
X140345Y390493D01*
X140264Y390468D01*
X140182Y390447D01*
X140099Y390429D01*
X140015Y390416D01*
X139931Y390406D01*
X139847Y390400D01*
X139762Y390398D01*
X137927Y390398D01*
X145730Y390398D02*
X145730Y397002D01*
X147564Y397002D01*
X147649Y397000D01*
X147733Y396994D01*
X147817Y396984D01*
X147901Y396971D01*
X147984Y396953D01*
X148066Y396932D01*
X148147Y396907D01*
X148227Y396878D01*
X148305Y396846D01*
X148381Y396810D01*
X148456Y396770D01*
X148529Y396727D01*
X148600Y396681D01*
X148669Y396632D01*
X148736Y396579D01*
X148800Y396523D01*
X148861Y396465D01*
X148919Y396404D01*
X148975Y396340D01*
X149028Y396273D01*
X149077Y396204D01*
X149123Y396133D01*
X149166Y396060D01*
X149206Y395985D01*
X149242Y395909D01*
X149274Y395831D01*
X149303Y395751D01*
X149328Y395670D01*
X149349Y395588D01*
X149367Y395505D01*
X149380Y395421D01*
X149390Y395337D01*
X149396Y395253D01*
X149398Y395168D01*
X149399Y395168D02*
X149399Y392232D01*
X149398Y392232D02*
X149396Y392147D01*
X149390Y392063D01*
X149380Y391979D01*
X149367Y391895D01*
X149349Y391812D01*
X149328Y391730D01*
X149303Y391649D01*
X149274Y391569D01*
X149242Y391491D01*
X149206Y391415D01*
X149166Y391340D01*
X149123Y391267D01*
X149077Y391196D01*
X149028Y391127D01*
X148975Y391060D01*
X148919Y390996D01*
X148861Y390935D01*
X148800Y390877D01*
X148736Y390821D01*
X148669Y390768D01*
X148600Y390719D01*
X148529Y390673D01*
X148456Y390630D01*
X148381Y390590D01*
X148305Y390554D01*
X148227Y390522D01*
X148147Y390493D01*
X148066Y390468D01*
X147984Y390447D01*
X147901Y390429D01*
X147817Y390416D01*
X147733Y390406D01*
X147649Y390400D01*
X147564Y390398D01*
X145730Y390398D01*
X10532Y163266D02*
X10530Y163192D01*
X10524Y163117D01*
X10515Y163044D01*
X10502Y162970D01*
X10485Y162898D01*
X10465Y162827D01*
X10441Y162756D01*
X10413Y162687D01*
X10382Y162619D01*
X10348Y162554D01*
X10310Y162489D01*
X10269Y162427D01*
X10225Y162367D01*
X10178Y162310D01*
X10128Y162255D01*
X10075Y162202D01*
X10020Y162152D01*
X9963Y162105D01*
X9903Y162061D01*
X9841Y162020D01*
X9776Y161982D01*
X9710Y161948D01*
X9643Y161917D01*
X9574Y161889D01*
X9503Y161865D01*
X9432Y161845D01*
X9359Y161828D01*
X9286Y161815D01*
X9212Y161806D01*
X9138Y161800D01*
X9064Y161798D01*
X8953Y161800D01*
X8842Y161806D01*
X8731Y161816D01*
X8620Y161830D01*
X8511Y161848D01*
X8402Y161870D01*
X8293Y161895D01*
X8186Y161925D01*
X8080Y161958D01*
X7975Y161996D01*
X7872Y162036D01*
X7770Y162081D01*
X7670Y162129D01*
X7571Y162181D01*
X7475Y162236D01*
X7380Y162295D01*
X7288Y162357D01*
X7198Y162423D01*
X7110Y162491D01*
X7025Y162563D01*
X6943Y162638D01*
X6863Y162715D01*
X7046Y166934D02*
X7048Y167008D01*
X7054Y167083D01*
X7063Y167156D01*
X7076Y167230D01*
X7093Y167302D01*
X7113Y167373D01*
X7137Y167444D01*
X7165Y167513D01*
X7196Y167580D01*
X7230Y167646D01*
X7268Y167711D01*
X7309Y167773D01*
X7353Y167833D01*
X7400Y167890D01*
X7450Y167945D01*
X7503Y167998D01*
X7558Y168048D01*
X7615Y168095D01*
X7675Y168139D01*
X7737Y168180D01*
X7802Y168218D01*
X7868Y168252D01*
X7935Y168283D01*
X8004Y168311D01*
X8075Y168335D01*
X8146Y168355D01*
X8218Y168372D01*
X8292Y168385D01*
X8365Y168394D01*
X8440Y168400D01*
X8514Y168402D01*
X8618Y168400D01*
X8722Y168394D01*
X8826Y168384D01*
X8929Y168371D01*
X9032Y168353D01*
X9134Y168331D01*
X9235Y168306D01*
X9335Y168277D01*
X9434Y168244D01*
X9531Y168207D01*
X9627Y168167D01*
X9722Y168123D01*
X9814Y168075D01*
X9905Y168025D01*
X9994Y167970D01*
X10081Y167913D01*
X10165Y167852D01*
X7780Y165649D02*
X7717Y165688D01*
X7657Y165730D01*
X7599Y165775D01*
X7542Y165823D01*
X7489Y165874D01*
X7438Y165927D01*
X7389Y165982D01*
X7344Y166040D01*
X7301Y166100D01*
X7261Y166162D01*
X7225Y166226D01*
X7191Y166292D01*
X7161Y166360D01*
X7134Y166428D01*
X7111Y166498D01*
X7091Y166569D01*
X7075Y166641D01*
X7062Y166714D01*
X7053Y166787D01*
X7048Y166860D01*
X7046Y166934D01*
X9798Y164551D02*
X9861Y164512D01*
X9921Y164470D01*
X9980Y164425D01*
X10036Y164377D01*
X10089Y164326D01*
X10140Y164273D01*
X10189Y164218D01*
X10234Y164160D01*
X10277Y164100D01*
X10317Y164038D01*
X10353Y163974D01*
X10387Y163908D01*
X10417Y163840D01*
X10444Y163772D01*
X10467Y163702D01*
X10487Y163631D01*
X10503Y163559D01*
X10516Y163486D01*
X10525Y163413D01*
X10530Y163340D01*
X10532Y163266D01*
X9798Y164550D02*
X7780Y165650D01*
X13809Y168402D02*
X15276Y161798D01*
X16744Y166201D01*
X18211Y161798D01*
X19679Y168402D01*
X23571Y168402D02*
X23571Y161798D01*
X22837Y161798D02*
X24305Y161798D01*
X24305Y168402D02*
X22837Y168402D01*
X28936Y168402D02*
X28936Y161798D01*
X30770Y168402D02*
X27101Y168402D01*
X35361Y161798D02*
X36828Y161798D01*
X35361Y161798D02*
X35287Y161800D01*
X35212Y161806D01*
X35139Y161815D01*
X35065Y161828D01*
X34993Y161845D01*
X34922Y161865D01*
X34851Y161889D01*
X34782Y161917D01*
X34715Y161948D01*
X34649Y161982D01*
X34584Y162020D01*
X34522Y162061D01*
X34462Y162105D01*
X34405Y162152D01*
X34350Y162202D01*
X34297Y162255D01*
X34247Y162310D01*
X34200Y162367D01*
X34156Y162427D01*
X34115Y162489D01*
X34077Y162554D01*
X34043Y162620D01*
X34012Y162687D01*
X33984Y162756D01*
X33960Y162827D01*
X33940Y162898D01*
X33923Y162970D01*
X33910Y163044D01*
X33901Y163117D01*
X33895Y163192D01*
X33893Y163266D01*
X33893Y166934D01*
X33895Y167008D01*
X33901Y167083D01*
X33910Y167156D01*
X33923Y167230D01*
X33940Y167302D01*
X33960Y167373D01*
X33984Y167444D01*
X34012Y167513D01*
X34043Y167580D01*
X34077Y167646D01*
X34115Y167711D01*
X34156Y167773D01*
X34200Y167833D01*
X34247Y167890D01*
X34297Y167945D01*
X34350Y167998D01*
X34405Y168048D01*
X34462Y168095D01*
X34522Y168139D01*
X34584Y168180D01*
X34649Y168218D01*
X34714Y168252D01*
X34782Y168283D01*
X34851Y168311D01*
X34922Y168335D01*
X34993Y168355D01*
X35065Y168372D01*
X35139Y168385D01*
X35212Y168394D01*
X35287Y168400D01*
X35361Y168402D01*
X36828Y168402D01*
X40269Y168402D02*
X40269Y161798D01*
X40269Y165467D02*
X43937Y165467D01*
X43937Y168402D02*
X43937Y161798D01*
X181102Y350978D02*
X181100Y351052D01*
X181094Y351126D01*
X181085Y351200D01*
X181072Y351273D01*
X181055Y351346D01*
X181035Y351417D01*
X181011Y351488D01*
X180983Y351557D01*
X180952Y351624D01*
X180918Y351690D01*
X180880Y351755D01*
X180839Y351817D01*
X180795Y351877D01*
X180748Y351934D01*
X180698Y351989D01*
X180645Y352042D01*
X180590Y352092D01*
X180533Y352139D01*
X180473Y352183D01*
X180411Y352224D01*
X180346Y352262D01*
X180281Y352296D01*
X180213Y352327D01*
X180144Y352355D01*
X180073Y352379D01*
X180002Y352399D01*
X179930Y352416D01*
X179856Y352429D01*
X179783Y352438D01*
X179708Y352444D01*
X179634Y352446D01*
X181102Y350978D02*
X181100Y350867D01*
X181094Y350756D01*
X181084Y350645D01*
X181070Y350534D01*
X181052Y350425D01*
X181030Y350316D01*
X181005Y350207D01*
X180975Y350100D01*
X180942Y349994D01*
X180904Y349889D01*
X180864Y349786D01*
X180819Y349684D01*
X180771Y349584D01*
X180719Y349485D01*
X180664Y349389D01*
X180605Y349294D01*
X180543Y349202D01*
X180477Y349112D01*
X180409Y349024D01*
X180337Y348939D01*
X180262Y348857D01*
X180185Y348777D01*
X175966Y348959D02*
X175892Y348961D01*
X175817Y348967D01*
X175744Y348976D01*
X175670Y348989D01*
X175598Y349006D01*
X175527Y349026D01*
X175456Y349050D01*
X175387Y349078D01*
X175320Y349109D01*
X175254Y349143D01*
X175189Y349181D01*
X175127Y349222D01*
X175067Y349266D01*
X175010Y349313D01*
X174955Y349363D01*
X174902Y349416D01*
X174852Y349471D01*
X174805Y349528D01*
X174761Y349588D01*
X174720Y349650D01*
X174682Y349715D01*
X174648Y349781D01*
X174617Y349848D01*
X174589Y349917D01*
X174565Y349988D01*
X174545Y350059D01*
X174528Y350131D01*
X174515Y350205D01*
X174506Y350278D01*
X174500Y350353D01*
X174498Y350427D01*
X174500Y350531D01*
X174506Y350635D01*
X174516Y350739D01*
X174529Y350842D01*
X174547Y350945D01*
X174569Y351047D01*
X174594Y351148D01*
X174623Y351248D01*
X174656Y351347D01*
X174693Y351444D01*
X174733Y351540D01*
X174777Y351635D01*
X174825Y351727D01*
X174875Y351818D01*
X174930Y351907D01*
X174988Y351994D01*
X175048Y352078D01*
X177251Y349693D02*
X177212Y349630D01*
X177170Y349570D01*
X177125Y349512D01*
X177077Y349455D01*
X177026Y349402D01*
X176973Y349351D01*
X176918Y349302D01*
X176860Y349257D01*
X176800Y349214D01*
X176738Y349174D01*
X176674Y349138D01*
X176608Y349104D01*
X176540Y349074D01*
X176472Y349047D01*
X176402Y349024D01*
X176331Y349004D01*
X176259Y348988D01*
X176186Y348975D01*
X176113Y348966D01*
X176040Y348961D01*
X175966Y348959D01*
X178349Y351712D02*
X178388Y351775D01*
X178430Y351835D01*
X178475Y351894D01*
X178523Y351950D01*
X178574Y352003D01*
X178627Y352054D01*
X178682Y352103D01*
X178740Y352148D01*
X178800Y352191D01*
X178862Y352231D01*
X178926Y352267D01*
X178992Y352301D01*
X179060Y352331D01*
X179128Y352358D01*
X179198Y352381D01*
X179269Y352401D01*
X179341Y352417D01*
X179414Y352430D01*
X179487Y352439D01*
X179560Y352444D01*
X179634Y352446D01*
X178350Y351711D02*
X177250Y349693D01*
X176332Y355848D02*
X179268Y355848D01*
X176332Y355848D02*
X176247Y355850D01*
X176163Y355856D01*
X176079Y355866D01*
X175995Y355879D01*
X175912Y355897D01*
X175830Y355918D01*
X175749Y355943D01*
X175669Y355972D01*
X175591Y356004D01*
X175515Y356040D01*
X175440Y356080D01*
X175367Y356123D01*
X175296Y356169D01*
X175227Y356218D01*
X175160Y356271D01*
X175096Y356327D01*
X175035Y356385D01*
X174977Y356446D01*
X174921Y356510D01*
X174868Y356577D01*
X174819Y356646D01*
X174773Y356717D01*
X174730Y356790D01*
X174690Y356865D01*
X174654Y356941D01*
X174622Y357019D01*
X174593Y357099D01*
X174568Y357180D01*
X174547Y357262D01*
X174529Y357345D01*
X174516Y357429D01*
X174506Y357513D01*
X174500Y357597D01*
X174498Y357682D01*
X174500Y357767D01*
X174506Y357851D01*
X174516Y357935D01*
X174529Y358019D01*
X174547Y358102D01*
X174568Y358184D01*
X174593Y358265D01*
X174622Y358345D01*
X174654Y358423D01*
X174690Y358499D01*
X174730Y358574D01*
X174773Y358647D01*
X174819Y358718D01*
X174868Y358787D01*
X174921Y358854D01*
X174977Y358918D01*
X175035Y358979D01*
X175096Y359037D01*
X175160Y359093D01*
X175227Y359146D01*
X175296Y359195D01*
X175367Y359241D01*
X175440Y359284D01*
X175515Y359324D01*
X175591Y359360D01*
X175669Y359392D01*
X175749Y359421D01*
X175830Y359446D01*
X175912Y359467D01*
X175995Y359485D01*
X176079Y359498D01*
X176163Y359508D01*
X176247Y359514D01*
X176332Y359516D01*
X179268Y359516D01*
X179353Y359514D01*
X179437Y359508D01*
X179521Y359498D01*
X179605Y359485D01*
X179688Y359467D01*
X179770Y359446D01*
X179851Y359421D01*
X179931Y359392D01*
X180009Y359360D01*
X180085Y359324D01*
X180160Y359284D01*
X180233Y359241D01*
X180304Y359195D01*
X180373Y359146D01*
X180440Y359093D01*
X180504Y359037D01*
X180565Y358979D01*
X180623Y358918D01*
X180679Y358854D01*
X180732Y358787D01*
X180781Y358718D01*
X180827Y358647D01*
X180870Y358574D01*
X180910Y358499D01*
X180946Y358423D01*
X180978Y358345D01*
X181007Y358265D01*
X181032Y358184D01*
X181053Y358102D01*
X181071Y358019D01*
X181084Y357935D01*
X181094Y357851D01*
X181100Y357767D01*
X181102Y357682D01*
X181100Y357597D01*
X181094Y357513D01*
X181084Y357429D01*
X181071Y357345D01*
X181053Y357262D01*
X181032Y357180D01*
X181007Y357099D01*
X180978Y357019D01*
X180946Y356941D01*
X180910Y356865D01*
X180870Y356790D01*
X180827Y356717D01*
X180781Y356646D01*
X180732Y356577D01*
X180679Y356510D01*
X180623Y356446D01*
X180565Y356385D01*
X180504Y356327D01*
X180440Y356271D01*
X180373Y356218D01*
X180304Y356169D01*
X180233Y356123D01*
X180160Y356080D01*
X180085Y356040D01*
X180009Y356004D01*
X179931Y355972D01*
X179851Y355943D01*
X179770Y355918D01*
X179688Y355897D01*
X179605Y355879D01*
X179521Y355866D01*
X179437Y355856D01*
X179353Y355850D01*
X179268Y355848D01*
X179268Y363407D02*
X174498Y363407D01*
X179268Y363407D02*
X179353Y363409D01*
X179437Y363415D01*
X179521Y363425D01*
X179605Y363438D01*
X179688Y363456D01*
X179770Y363477D01*
X179851Y363502D01*
X179931Y363531D01*
X180009Y363563D01*
X180085Y363599D01*
X180160Y363639D01*
X180233Y363682D01*
X180304Y363728D01*
X180373Y363777D01*
X180440Y363830D01*
X180504Y363886D01*
X180565Y363944D01*
X180623Y364005D01*
X180679Y364069D01*
X180732Y364136D01*
X180781Y364205D01*
X180827Y364276D01*
X180870Y364349D01*
X180910Y364424D01*
X180946Y364500D01*
X180978Y364578D01*
X181007Y364658D01*
X181032Y364739D01*
X181053Y364821D01*
X181071Y364904D01*
X181084Y364988D01*
X181094Y365072D01*
X181100Y365156D01*
X181102Y365241D01*
X181100Y365326D01*
X181094Y365410D01*
X181084Y365494D01*
X181071Y365578D01*
X181053Y365661D01*
X181032Y365743D01*
X181007Y365824D01*
X180978Y365904D01*
X180946Y365982D01*
X180910Y366058D01*
X180870Y366133D01*
X180827Y366206D01*
X180781Y366277D01*
X180732Y366346D01*
X180679Y366413D01*
X180623Y366477D01*
X180565Y366538D01*
X180504Y366596D01*
X180440Y366652D01*
X180373Y366705D01*
X180304Y366754D01*
X180233Y366800D01*
X180160Y366843D01*
X180085Y366883D01*
X180009Y366919D01*
X179931Y366951D01*
X179851Y366980D01*
X179770Y367005D01*
X179688Y367026D01*
X179605Y367044D01*
X179521Y367057D01*
X179437Y367067D01*
X179353Y367073D01*
X179268Y367075D01*
X179268Y367076D02*
X174498Y367076D01*
X174498Y371288D02*
X181102Y371288D01*
X174498Y371288D02*
X174498Y373123D01*
X174500Y373208D01*
X174506Y373292D01*
X174516Y373376D01*
X174529Y373460D01*
X174547Y373543D01*
X174568Y373625D01*
X174593Y373706D01*
X174622Y373786D01*
X174654Y373864D01*
X174690Y373940D01*
X174730Y374015D01*
X174773Y374088D01*
X174819Y374159D01*
X174868Y374228D01*
X174921Y374295D01*
X174977Y374359D01*
X175035Y374420D01*
X175096Y374478D01*
X175160Y374534D01*
X175227Y374587D01*
X175296Y374636D01*
X175367Y374682D01*
X175440Y374725D01*
X175515Y374765D01*
X175591Y374801D01*
X175669Y374833D01*
X175749Y374862D01*
X175830Y374887D01*
X175912Y374908D01*
X175995Y374926D01*
X176079Y374939D01*
X176163Y374949D01*
X176247Y374955D01*
X176332Y374957D01*
X176417Y374955D01*
X176501Y374949D01*
X176585Y374939D01*
X176669Y374926D01*
X176752Y374908D01*
X176834Y374887D01*
X176915Y374862D01*
X176995Y374833D01*
X177073Y374801D01*
X177149Y374765D01*
X177224Y374725D01*
X177297Y374682D01*
X177368Y374636D01*
X177437Y374587D01*
X177504Y374534D01*
X177568Y374478D01*
X177629Y374420D01*
X177687Y374359D01*
X177743Y374295D01*
X177796Y374228D01*
X177845Y374159D01*
X177891Y374088D01*
X177934Y374015D01*
X177974Y373940D01*
X178010Y373864D01*
X178042Y373786D01*
X178071Y373706D01*
X178096Y373625D01*
X178117Y373543D01*
X178135Y373460D01*
X178148Y373376D01*
X178158Y373292D01*
X178164Y373208D01*
X178166Y373123D01*
X178167Y373123D02*
X178167Y371288D01*
X178167Y373490D02*
X181102Y374957D01*
X181102Y379957D02*
X181102Y381424D01*
X181102Y379957D02*
X181100Y379883D01*
X181094Y379808D01*
X181085Y379735D01*
X181072Y379661D01*
X181055Y379589D01*
X181035Y379518D01*
X181011Y379447D01*
X180983Y379378D01*
X180952Y379311D01*
X180918Y379245D01*
X180880Y379180D01*
X180839Y379118D01*
X180795Y379058D01*
X180748Y379001D01*
X180698Y378946D01*
X180645Y378893D01*
X180590Y378843D01*
X180533Y378796D01*
X180473Y378752D01*
X180411Y378711D01*
X180346Y378673D01*
X180281Y378639D01*
X180213Y378608D01*
X180144Y378580D01*
X180073Y378556D01*
X180002Y378536D01*
X179930Y378519D01*
X179856Y378506D01*
X179783Y378497D01*
X179708Y378491D01*
X179634Y378489D01*
X175966Y378489D01*
X175892Y378491D01*
X175817Y378497D01*
X175744Y378506D01*
X175670Y378519D01*
X175598Y378536D01*
X175527Y378556D01*
X175456Y378580D01*
X175387Y378608D01*
X175320Y378639D01*
X175254Y378673D01*
X175189Y378711D01*
X175127Y378752D01*
X175067Y378796D01*
X175010Y378843D01*
X174955Y378893D01*
X174902Y378946D01*
X174852Y379001D01*
X174805Y379058D01*
X174761Y379118D01*
X174720Y379180D01*
X174682Y379245D01*
X174648Y379310D01*
X174617Y379378D01*
X174589Y379447D01*
X174565Y379518D01*
X174545Y379589D01*
X174528Y379661D01*
X174515Y379735D01*
X174506Y379808D01*
X174500Y379883D01*
X174498Y379957D01*
X174498Y381424D01*
X181102Y384889D02*
X181102Y387824D01*
X181102Y384889D02*
X174498Y384889D01*
X174498Y387824D01*
X177433Y387090D02*
X177433Y384889D01*
X66802Y29938D02*
X60198Y29938D01*
X66802Y29938D02*
X66802Y32873D01*
X66802Y36278D02*
X66802Y39213D01*
X66802Y36278D02*
X60198Y36278D01*
X60198Y39213D01*
X63133Y38479D02*
X63133Y36278D01*
X60198Y42593D02*
X66802Y42593D01*
X60198Y42593D02*
X60198Y44428D01*
X60200Y44513D01*
X60206Y44597D01*
X60216Y44681D01*
X60229Y44765D01*
X60247Y44848D01*
X60268Y44930D01*
X60293Y45011D01*
X60322Y45091D01*
X60354Y45169D01*
X60390Y45245D01*
X60430Y45320D01*
X60473Y45393D01*
X60519Y45464D01*
X60568Y45533D01*
X60621Y45600D01*
X60677Y45664D01*
X60735Y45725D01*
X60796Y45783D01*
X60860Y45839D01*
X60927Y45892D01*
X60996Y45941D01*
X61067Y45987D01*
X61140Y46030D01*
X61215Y46070D01*
X61291Y46106D01*
X61370Y46138D01*
X61449Y46167D01*
X61530Y46192D01*
X61612Y46213D01*
X61695Y46231D01*
X61779Y46244D01*
X61863Y46254D01*
X61947Y46260D01*
X62032Y46262D01*
X64968Y46262D01*
X65053Y46260D01*
X65137Y46254D01*
X65221Y46244D01*
X65305Y46231D01*
X65388Y46213D01*
X65470Y46192D01*
X65551Y46167D01*
X65631Y46138D01*
X65709Y46106D01*
X65785Y46070D01*
X65860Y46030D01*
X65933Y45987D01*
X66004Y45941D01*
X66073Y45892D01*
X66140Y45839D01*
X66204Y45783D01*
X66265Y45725D01*
X66323Y45664D01*
X66379Y45600D01*
X66432Y45533D01*
X66481Y45464D01*
X66527Y45393D01*
X66570Y45320D01*
X66610Y45245D01*
X66646Y45169D01*
X66678Y45091D01*
X66707Y45011D01*
X66732Y44930D01*
X66753Y44848D01*
X66771Y44765D01*
X66784Y44681D01*
X66794Y44597D01*
X66800Y44513D01*
X66802Y44428D01*
X66802Y42593D01*
D11*
X121929Y295148D02*
X124526Y295148D01*
X121929Y295148D02*
X121830Y295150D01*
X121730Y295156D01*
X121631Y295165D01*
X121533Y295178D01*
X121435Y295195D01*
X121337Y295216D01*
X121241Y295241D01*
X121146Y295269D01*
X121052Y295301D01*
X120959Y295336D01*
X120867Y295375D01*
X120777Y295418D01*
X120689Y295463D01*
X120602Y295513D01*
X120518Y295565D01*
X120435Y295621D01*
X120355Y295679D01*
X120277Y295741D01*
X120202Y295806D01*
X120129Y295874D01*
X120059Y295944D01*
X119991Y296017D01*
X119926Y296092D01*
X119864Y296170D01*
X119806Y296250D01*
X119750Y296333D01*
X119698Y296417D01*
X119648Y296504D01*
X119603Y296592D01*
X119560Y296682D01*
X119521Y296774D01*
X119486Y296867D01*
X119454Y296961D01*
X119426Y297056D01*
X119401Y297152D01*
X119380Y297250D01*
X119363Y297348D01*
X119350Y297446D01*
X119341Y297545D01*
X119335Y297645D01*
X119333Y297744D01*
X119333Y304236D01*
X119335Y304335D01*
X119341Y304435D01*
X119350Y304534D01*
X119363Y304632D01*
X119380Y304730D01*
X119401Y304828D01*
X119426Y304924D01*
X119454Y305019D01*
X119486Y305113D01*
X119521Y305206D01*
X119560Y305298D01*
X119603Y305388D01*
X119648Y305476D01*
X119698Y305563D01*
X119750Y305647D01*
X119806Y305730D01*
X119864Y305810D01*
X119926Y305888D01*
X119991Y305963D01*
X120059Y306036D01*
X120129Y306106D01*
X120202Y306174D01*
X120277Y306239D01*
X120355Y306301D01*
X120435Y306359D01*
X120518Y306415D01*
X120602Y306467D01*
X120689Y306517D01*
X120777Y306562D01*
X120867Y306605D01*
X120959Y306644D01*
X121051Y306679D01*
X121146Y306711D01*
X121241Y306739D01*
X121337Y306764D01*
X121435Y306785D01*
X121533Y306802D01*
X121631Y306815D01*
X121730Y306824D01*
X121830Y306830D01*
X121929Y306832D01*
X124526Y306832D01*
X128891Y304236D02*
X132136Y306832D01*
X132136Y295148D01*
X128891Y295148D02*
X135382Y295148D01*
D10*
X135890Y127000D02*
X138430Y127000D01*
X135890Y127000D02*
X135890Y138430D01*
X129540Y138430D01*
X129540Y115570D01*
X135890Y115570D01*
X135890Y127000D01*
X120650Y127000D02*
X115570Y127000D01*
X165100Y118110D02*
X165100Y110490D01*
X161290Y114300D02*
X168910Y114300D01*
X76200Y127000D02*
X76215Y128247D01*
X76261Y129493D01*
X76338Y130737D01*
X76445Y131979D01*
X76582Y133218D01*
X76750Y134454D01*
X76948Y135685D01*
X77176Y136911D01*
X77434Y138130D01*
X77722Y139343D01*
X78040Y140549D01*
X78387Y141746D01*
X78764Y142935D01*
X79170Y144114D01*
X79604Y145283D01*
X80067Y146440D01*
X80558Y147586D01*
X81077Y148720D01*
X81624Y149840D01*
X82198Y150947D01*
X82800Y152039D01*
X83427Y153116D01*
X84081Y154178D01*
X84761Y155223D01*
X85467Y156251D01*
X86197Y157262D01*
X86952Y158254D01*
X87731Y159227D01*
X88534Y160181D01*
X89360Y161115D01*
X90208Y162029D01*
X91079Y162921D01*
X91971Y163792D01*
X92885Y164640D01*
X93819Y165466D01*
X94773Y166269D01*
X95746Y167048D01*
X96738Y167803D01*
X97749Y168533D01*
X98777Y169239D01*
X99822Y169919D01*
X100884Y170573D01*
X101961Y171200D01*
X103053Y171802D01*
X104160Y172376D01*
X105280Y172923D01*
X106414Y173442D01*
X107560Y173933D01*
X108717Y174396D01*
X109886Y174830D01*
X111065Y175236D01*
X112254Y175613D01*
X113451Y175960D01*
X114657Y176278D01*
X115870Y176566D01*
X117089Y176824D01*
X118315Y177052D01*
X119546Y177250D01*
X120782Y177418D01*
X122021Y177555D01*
X123263Y177662D01*
X124507Y177739D01*
X125753Y177785D01*
X127000Y177800D01*
X128247Y177785D01*
X129493Y177739D01*
X130737Y177662D01*
X131979Y177555D01*
X133218Y177418D01*
X134454Y177250D01*
X135685Y177052D01*
X136911Y176824D01*
X138130Y176566D01*
X139343Y176278D01*
X140549Y175960D01*
X141746Y175613D01*
X142935Y175236D01*
X144114Y174830D01*
X145283Y174396D01*
X146440Y173933D01*
X147586Y173442D01*
X148720Y172923D01*
X149840Y172376D01*
X150947Y171802D01*
X152039Y171200D01*
X153116Y170573D01*
X154178Y169919D01*
X155223Y169239D01*
X156251Y168533D01*
X157262Y167803D01*
X158254Y167048D01*
X159227Y166269D01*
X160181Y165466D01*
X161115Y164640D01*
X162029Y163792D01*
X162921Y162921D01*
X163792Y162029D01*
X164640Y161115D01*
X165466Y160181D01*
X166269Y159227D01*
X167048Y158254D01*
X167803Y157262D01*
X168533Y156251D01*
X169239Y155223D01*
X169919Y154178D01*
X170573Y153116D01*
X171200Y152039D01*
X171802Y150947D01*
X172376Y149840D01*
X172923Y148720D01*
X173442Y147586D01*
X173933Y146440D01*
X174396Y145283D01*
X174830Y144114D01*
X175236Y142935D01*
X175613Y141746D01*
X175960Y140549D01*
X176278Y139343D01*
X176566Y138130D01*
X176824Y136911D01*
X177052Y135685D01*
X177250Y134454D01*
X177418Y133218D01*
X177555Y131979D01*
X177662Y130737D01*
X177739Y129493D01*
X177785Y128247D01*
X177800Y127000D01*
X177785Y125753D01*
X177739Y124507D01*
X177662Y123263D01*
X177555Y122021D01*
X177418Y120782D01*
X177250Y119546D01*
X177052Y118315D01*
X176824Y117089D01*
X176566Y115870D01*
X176278Y114657D01*
X175960Y113451D01*
X175613Y112254D01*
X175236Y111065D01*
X174830Y109886D01*
X174396Y108717D01*
X173933Y107560D01*
X173442Y106414D01*
X172923Y105280D01*
X172376Y104160D01*
X171802Y103053D01*
X171200Y101961D01*
X170573Y100884D01*
X169919Y99822D01*
X169239Y98777D01*
X168533Y97749D01*
X167803Y96738D01*
X167048Y95746D01*
X166269Y94773D01*
X165466Y93819D01*
X164640Y92885D01*
X163792Y91971D01*
X162921Y91079D01*
X162029Y90208D01*
X161115Y89360D01*
X160181Y88534D01*
X159227Y87731D01*
X158254Y86952D01*
X157262Y86197D01*
X156251Y85467D01*
X155223Y84761D01*
X154178Y84081D01*
X153116Y83427D01*
X152039Y82800D01*
X150947Y82198D01*
X149840Y81624D01*
X148720Y81077D01*
X147586Y80558D01*
X146440Y80067D01*
X145283Y79604D01*
X144114Y79170D01*
X142935Y78764D01*
X141746Y78387D01*
X140549Y78040D01*
X139343Y77722D01*
X138130Y77434D01*
X136911Y77176D01*
X135685Y76948D01*
X134454Y76750D01*
X133218Y76582D01*
X131979Y76445D01*
X130737Y76338D01*
X129493Y76261D01*
X128247Y76215D01*
X127000Y76200D01*
X125753Y76215D01*
X124507Y76261D01*
X123263Y76338D01*
X122021Y76445D01*
X120782Y76582D01*
X119546Y76750D01*
X118315Y76948D01*
X117089Y77176D01*
X115870Y77434D01*
X114657Y77722D01*
X113451Y78040D01*
X112254Y78387D01*
X111065Y78764D01*
X109886Y79170D01*
X108717Y79604D01*
X107560Y80067D01*
X106414Y80558D01*
X105280Y81077D01*
X104160Y81624D01*
X103053Y82198D01*
X101961Y82800D01*
X100884Y83427D01*
X99822Y84081D01*
X98777Y84761D01*
X97749Y85467D01*
X96738Y86197D01*
X95746Y86952D01*
X94773Y87731D01*
X93819Y88534D01*
X92885Y89360D01*
X91971Y90208D01*
X91079Y91079D01*
X90208Y91971D01*
X89360Y92885D01*
X88534Y93819D01*
X87731Y94773D01*
X86952Y95746D01*
X86197Y96738D01*
X85467Y97749D01*
X84761Y98777D01*
X84081Y99822D01*
X83427Y100884D01*
X82800Y101961D01*
X82198Y103053D01*
X81624Y104160D01*
X81077Y105280D01*
X80558Y106414D01*
X80067Y107560D01*
X79604Y108717D01*
X79170Y109886D01*
X78764Y111065D01*
X78387Y112254D01*
X78040Y113451D01*
X77722Y114657D01*
X77434Y115870D01*
X77176Y117089D01*
X76948Y118315D01*
X76750Y119546D01*
X76582Y120782D01*
X76445Y122021D01*
X76338Y123263D01*
X76261Y124507D01*
X76215Y125753D01*
X76200Y127000D01*
D12*
X121285Y127000D03*
D13*
X68543Y87503D02*
X66003Y87503D01*
X65903Y87505D01*
X65804Y87511D01*
X65704Y87521D01*
X65606Y87534D01*
X65507Y87552D01*
X65410Y87573D01*
X65314Y87598D01*
X65218Y87627D01*
X65124Y87660D01*
X65031Y87696D01*
X64940Y87736D01*
X64850Y87780D01*
X64762Y87827D01*
X64676Y87877D01*
X64592Y87931D01*
X64510Y87988D01*
X64431Y88048D01*
X64353Y88112D01*
X64279Y88178D01*
X64207Y88247D01*
X64138Y88319D01*
X64072Y88393D01*
X64008Y88471D01*
X63948Y88550D01*
X63891Y88632D01*
X63837Y88716D01*
X63787Y88802D01*
X63740Y88890D01*
X63696Y88980D01*
X63656Y89071D01*
X63620Y89164D01*
X63587Y89258D01*
X63558Y89354D01*
X63533Y89450D01*
X63512Y89547D01*
X63494Y89646D01*
X63481Y89744D01*
X63471Y89844D01*
X63465Y89943D01*
X63463Y90043D01*
X63463Y96393D01*
X63465Y96493D01*
X63471Y96592D01*
X63481Y96692D01*
X63494Y96790D01*
X63512Y96889D01*
X63533Y96986D01*
X63558Y97082D01*
X63587Y97178D01*
X63620Y97272D01*
X63656Y97365D01*
X63696Y97456D01*
X63740Y97546D01*
X63787Y97634D01*
X63837Y97720D01*
X63891Y97804D01*
X63948Y97886D01*
X64008Y97965D01*
X64072Y98043D01*
X64138Y98117D01*
X64207Y98189D01*
X64279Y98258D01*
X64353Y98324D01*
X64431Y98388D01*
X64510Y98448D01*
X64592Y98505D01*
X64676Y98559D01*
X64762Y98609D01*
X64850Y98656D01*
X64940Y98700D01*
X65031Y98740D01*
X65124Y98776D01*
X65218Y98809D01*
X65314Y98838D01*
X65410Y98863D01*
X65507Y98884D01*
X65606Y98902D01*
X65704Y98915D01*
X65804Y98925D01*
X65903Y98931D01*
X66003Y98933D01*
X68543Y98933D01*
X73025Y87503D02*
X76200Y87503D01*
X76311Y87505D01*
X76421Y87511D01*
X76532Y87520D01*
X76642Y87534D01*
X76751Y87551D01*
X76860Y87572D01*
X76968Y87597D01*
X77075Y87626D01*
X77181Y87658D01*
X77286Y87694D01*
X77389Y87734D01*
X77491Y87777D01*
X77592Y87824D01*
X77691Y87875D01*
X77787Y87928D01*
X77882Y87985D01*
X77975Y88046D01*
X78066Y88109D01*
X78155Y88176D01*
X78241Y88246D01*
X78324Y88319D01*
X78406Y88394D01*
X78484Y88472D01*
X78559Y88554D01*
X78632Y88637D01*
X78702Y88723D01*
X78769Y88812D01*
X78832Y88903D01*
X78893Y88996D01*
X78950Y89090D01*
X79003Y89187D01*
X79054Y89286D01*
X79101Y89387D01*
X79144Y89489D01*
X79184Y89592D01*
X79220Y89697D01*
X79252Y89803D01*
X79281Y89910D01*
X79306Y90018D01*
X79327Y90127D01*
X79344Y90236D01*
X79358Y90346D01*
X79367Y90457D01*
X79373Y90567D01*
X79375Y90678D01*
X79373Y90789D01*
X79367Y90899D01*
X79358Y91010D01*
X79344Y91120D01*
X79327Y91229D01*
X79306Y91338D01*
X79281Y91446D01*
X79252Y91553D01*
X79220Y91659D01*
X79184Y91764D01*
X79144Y91867D01*
X79101Y91969D01*
X79054Y92070D01*
X79003Y92169D01*
X78950Y92265D01*
X78893Y92360D01*
X78832Y92453D01*
X78769Y92544D01*
X78702Y92633D01*
X78632Y92719D01*
X78559Y92802D01*
X78484Y92884D01*
X78406Y92962D01*
X78324Y93037D01*
X78241Y93110D01*
X78155Y93180D01*
X78066Y93247D01*
X77975Y93310D01*
X77882Y93371D01*
X77788Y93428D01*
X77691Y93481D01*
X77592Y93532D01*
X77491Y93579D01*
X77389Y93622D01*
X77286Y93662D01*
X77181Y93698D01*
X77075Y93730D01*
X76968Y93759D01*
X76860Y93784D01*
X76751Y93805D01*
X76642Y93822D01*
X76532Y93836D01*
X76421Y93845D01*
X76311Y93851D01*
X76200Y93853D01*
X76835Y98933D02*
X73025Y98933D01*
X76835Y98933D02*
X76935Y98931D01*
X77034Y98925D01*
X77134Y98915D01*
X77232Y98902D01*
X77331Y98884D01*
X77428Y98863D01*
X77524Y98838D01*
X77620Y98809D01*
X77714Y98776D01*
X77807Y98740D01*
X77898Y98700D01*
X77988Y98656D01*
X78076Y98609D01*
X78162Y98559D01*
X78246Y98505D01*
X78328Y98448D01*
X78407Y98388D01*
X78485Y98324D01*
X78559Y98258D01*
X78631Y98189D01*
X78700Y98117D01*
X78766Y98043D01*
X78830Y97965D01*
X78890Y97886D01*
X78947Y97804D01*
X79001Y97720D01*
X79051Y97634D01*
X79098Y97546D01*
X79142Y97456D01*
X79182Y97365D01*
X79218Y97272D01*
X79251Y97178D01*
X79280Y97082D01*
X79305Y96986D01*
X79326Y96889D01*
X79344Y96790D01*
X79357Y96692D01*
X79367Y96592D01*
X79373Y96493D01*
X79375Y96393D01*
X79373Y96293D01*
X79367Y96194D01*
X79357Y96094D01*
X79344Y95996D01*
X79326Y95897D01*
X79305Y95800D01*
X79280Y95704D01*
X79251Y95608D01*
X79218Y95514D01*
X79182Y95421D01*
X79142Y95330D01*
X79098Y95240D01*
X79051Y95152D01*
X79001Y95066D01*
X78947Y94982D01*
X78890Y94900D01*
X78830Y94821D01*
X78766Y94743D01*
X78700Y94669D01*
X78631Y94597D01*
X78559Y94528D01*
X78485Y94462D01*
X78407Y94398D01*
X78328Y94338D01*
X78246Y94281D01*
X78162Y94227D01*
X78076Y94177D01*
X77988Y94130D01*
X77898Y94086D01*
X77807Y94046D01*
X77714Y94010D01*
X77620Y93977D01*
X77524Y93948D01*
X77428Y93923D01*
X77331Y93902D01*
X77232Y93884D01*
X77134Y93871D01*
X77034Y93861D01*
X76935Y93855D01*
X76835Y93853D01*
X74295Y93853D01*
D14*
X63515Y170486D03*
X63515Y185218D03*
D11*
X74168Y167065D02*
X85852Y167065D01*
X74168Y167065D02*
X74168Y170310D01*
X74170Y170423D01*
X74176Y170536D01*
X74186Y170649D01*
X74200Y170762D01*
X74217Y170874D01*
X74239Y170985D01*
X74264Y171095D01*
X74294Y171205D01*
X74327Y171313D01*
X74364Y171420D01*
X74404Y171526D01*
X74449Y171630D01*
X74497Y171733D01*
X74548Y171834D01*
X74603Y171933D01*
X74661Y172030D01*
X74723Y172125D01*
X74788Y172218D01*
X74856Y172308D01*
X74927Y172396D01*
X75002Y172482D01*
X75079Y172565D01*
X75159Y172645D01*
X75242Y172722D01*
X75328Y172797D01*
X75416Y172868D01*
X75506Y172936D01*
X75599Y173001D01*
X75694Y173063D01*
X75791Y173121D01*
X75890Y173176D01*
X75991Y173227D01*
X76094Y173275D01*
X76198Y173320D01*
X76304Y173360D01*
X76411Y173397D01*
X76519Y173430D01*
X76629Y173460D01*
X76739Y173485D01*
X76850Y173507D01*
X76962Y173524D01*
X77075Y173538D01*
X77188Y173548D01*
X77301Y173554D01*
X77414Y173556D01*
X77527Y173554D01*
X77640Y173548D01*
X77753Y173538D01*
X77866Y173524D01*
X77978Y173507D01*
X78089Y173485D01*
X78199Y173460D01*
X78309Y173430D01*
X78417Y173397D01*
X78524Y173360D01*
X78630Y173320D01*
X78734Y173275D01*
X78837Y173227D01*
X78938Y173176D01*
X79037Y173121D01*
X79134Y173063D01*
X79229Y173001D01*
X79322Y172936D01*
X79412Y172868D01*
X79500Y172797D01*
X79586Y172722D01*
X79669Y172645D01*
X79749Y172565D01*
X79826Y172482D01*
X79901Y172396D01*
X79972Y172308D01*
X80040Y172218D01*
X80105Y172125D01*
X80167Y172030D01*
X80225Y171933D01*
X80280Y171834D01*
X80331Y171733D01*
X80379Y171630D01*
X80424Y171526D01*
X80464Y171420D01*
X80501Y171313D01*
X80534Y171205D01*
X80564Y171095D01*
X80589Y170985D01*
X80611Y170874D01*
X80628Y170762D01*
X80642Y170649D01*
X80652Y170536D01*
X80658Y170423D01*
X80660Y170310D01*
X80659Y170310D02*
X80659Y167065D01*
X80659Y170959D02*
X85852Y173556D01*
X76764Y178421D02*
X74168Y181666D01*
X85852Y181666D01*
X85852Y178421D02*
X85852Y184912D01*
D14*
X203215Y208586D03*
X203215Y223318D03*
D11*
X213868Y224028D02*
X213868Y235712D01*
X217114Y235712D01*
X217227Y235710D01*
X217340Y235704D01*
X217453Y235694D01*
X217566Y235680D01*
X217678Y235663D01*
X217789Y235641D01*
X217899Y235616D01*
X218009Y235586D01*
X218117Y235553D01*
X218224Y235516D01*
X218330Y235476D01*
X218434Y235431D01*
X218537Y235383D01*
X218638Y235332D01*
X218737Y235277D01*
X218834Y235219D01*
X218929Y235157D01*
X219022Y235092D01*
X219112Y235024D01*
X219200Y234953D01*
X219286Y234878D01*
X219369Y234801D01*
X219449Y234721D01*
X219526Y234638D01*
X219601Y234552D01*
X219672Y234464D01*
X219740Y234374D01*
X219805Y234281D01*
X219867Y234186D01*
X219925Y234089D01*
X219980Y233990D01*
X220031Y233889D01*
X220079Y233786D01*
X220124Y233682D01*
X220164Y233576D01*
X220201Y233469D01*
X220234Y233361D01*
X220264Y233251D01*
X220289Y233141D01*
X220311Y233030D01*
X220328Y232918D01*
X220342Y232805D01*
X220352Y232692D01*
X220358Y232579D01*
X220360Y232466D01*
X220358Y232353D01*
X220352Y232240D01*
X220342Y232127D01*
X220328Y232014D01*
X220311Y231902D01*
X220289Y231791D01*
X220264Y231681D01*
X220234Y231571D01*
X220201Y231463D01*
X220164Y231356D01*
X220124Y231250D01*
X220079Y231146D01*
X220031Y231043D01*
X219980Y230942D01*
X219925Y230843D01*
X219867Y230746D01*
X219805Y230651D01*
X219740Y230558D01*
X219672Y230468D01*
X219601Y230380D01*
X219526Y230294D01*
X219449Y230211D01*
X219369Y230131D01*
X219286Y230054D01*
X219200Y229979D01*
X219112Y229908D01*
X219022Y229840D01*
X218929Y229775D01*
X218834Y229713D01*
X218737Y229655D01*
X218638Y229600D01*
X218537Y229549D01*
X218434Y229501D01*
X218330Y229456D01*
X218224Y229416D01*
X218117Y229379D01*
X218009Y229346D01*
X217899Y229316D01*
X217789Y229291D01*
X217678Y229269D01*
X217566Y229252D01*
X217453Y229238D01*
X217340Y229228D01*
X217227Y229222D01*
X217114Y229220D01*
X217114Y229221D02*
X213868Y229221D01*
X217763Y229221D02*
X220359Y224028D01*
X231715Y232791D02*
X231713Y232898D01*
X231707Y233004D01*
X231697Y233110D01*
X231684Y233216D01*
X231666Y233322D01*
X231645Y233426D01*
X231620Y233530D01*
X231591Y233633D01*
X231559Y233734D01*
X231522Y233834D01*
X231482Y233933D01*
X231439Y234031D01*
X231392Y234127D01*
X231341Y234221D01*
X231287Y234313D01*
X231230Y234403D01*
X231170Y234491D01*
X231106Y234576D01*
X231039Y234659D01*
X230969Y234740D01*
X230897Y234818D01*
X230821Y234894D01*
X230743Y234966D01*
X230662Y235036D01*
X230579Y235103D01*
X230494Y235167D01*
X230406Y235227D01*
X230316Y235284D01*
X230224Y235338D01*
X230130Y235389D01*
X230034Y235436D01*
X229936Y235479D01*
X229837Y235519D01*
X229737Y235556D01*
X229636Y235588D01*
X229533Y235617D01*
X229429Y235642D01*
X229325Y235663D01*
X229219Y235681D01*
X229113Y235694D01*
X229007Y235704D01*
X228901Y235710D01*
X228794Y235712D01*
X228673Y235710D01*
X228552Y235704D01*
X228432Y235694D01*
X228311Y235681D01*
X228192Y235663D01*
X228072Y235642D01*
X227954Y235617D01*
X227837Y235588D01*
X227720Y235555D01*
X227605Y235519D01*
X227491Y235478D01*
X227378Y235435D01*
X227266Y235387D01*
X227157Y235336D01*
X227049Y235281D01*
X226942Y235223D01*
X226838Y235162D01*
X226736Y235097D01*
X226636Y235029D01*
X226538Y234958D01*
X226442Y234884D01*
X226349Y234807D01*
X226259Y234726D01*
X226171Y234643D01*
X226086Y234557D01*
X226003Y234468D01*
X225924Y234377D01*
X225847Y234283D01*
X225774Y234187D01*
X225704Y234089D01*
X225637Y233988D01*
X225573Y233885D01*
X225513Y233780D01*
X225456Y233673D01*
X225402Y233565D01*
X225352Y233455D01*
X225306Y233343D01*
X225263Y233230D01*
X225224Y233115D01*
X230742Y230519D02*
X230821Y230596D01*
X230897Y230677D01*
X230970Y230760D01*
X231040Y230845D01*
X231107Y230933D01*
X231171Y231023D01*
X231231Y231115D01*
X231288Y231210D01*
X231342Y231306D01*
X231393Y231404D01*
X231440Y231504D01*
X231484Y231606D01*
X231524Y231709D01*
X231560Y231813D01*
X231592Y231919D01*
X231621Y232025D01*
X231646Y232133D01*
X231668Y232241D01*
X231685Y232351D01*
X231699Y232460D01*
X231708Y232570D01*
X231714Y232681D01*
X231716Y232791D01*
X230742Y230519D02*
X225224Y224028D01*
X231715Y224028D01*
D10*
X156210Y190500D02*
X156210Y292100D01*
X97790Y292100D02*
X97790Y190500D01*
X156210Y190500D01*
X156210Y292100D02*
X137160Y292100D01*
X116840Y292100D02*
X97790Y292100D01*
X116840Y292100D02*
X116843Y291853D01*
X116852Y291605D01*
X116867Y291358D01*
X116888Y291112D01*
X116915Y290866D01*
X116948Y290621D01*
X116987Y290376D01*
X117032Y290133D01*
X117083Y289891D01*
X117140Y289650D01*
X117202Y289411D01*
X117271Y289173D01*
X117345Y288937D01*
X117425Y288703D01*
X117510Y288471D01*
X117602Y288241D01*
X117698Y288013D01*
X117801Y287788D01*
X117908Y287565D01*
X118022Y287345D01*
X118140Y287128D01*
X118264Y286913D01*
X118393Y286702D01*
X118527Y286494D01*
X118666Y286289D01*
X118810Y286088D01*
X118958Y285890D01*
X119112Y285696D01*
X119270Y285506D01*
X119433Y285320D01*
X119600Y285138D01*
X119772Y284960D01*
X119948Y284786D01*
X120128Y284616D01*
X120313Y284451D01*
X120501Y284291D01*
X120693Y284135D01*
X120889Y283983D01*
X121088Y283837D01*
X121291Y283695D01*
X121498Y283559D01*
X121707Y283427D01*
X121920Y283301D01*
X122136Y283180D01*
X122354Y283064D01*
X122576Y282954D01*
X122800Y282849D01*
X123026Y282749D01*
X123255Y282655D01*
X123486Y282567D01*
X123720Y282484D01*
X123955Y282407D01*
X124192Y282336D01*
X124430Y282270D01*
X124670Y282211D01*
X124912Y282157D01*
X125155Y282109D01*
X125398Y282067D01*
X125643Y282031D01*
X125889Y282001D01*
X126135Y281977D01*
X126382Y281959D01*
X126629Y281947D01*
X126876Y281941D01*
X127124Y281941D01*
X127371Y281947D01*
X127618Y281959D01*
X127865Y281977D01*
X128111Y282001D01*
X128357Y282031D01*
X128602Y282067D01*
X128845Y282109D01*
X129088Y282157D01*
X129330Y282211D01*
X129570Y282270D01*
X129808Y282336D01*
X130045Y282407D01*
X130280Y282484D01*
X130514Y282567D01*
X130745Y282655D01*
X130974Y282749D01*
X131200Y282849D01*
X131424Y282954D01*
X131646Y283064D01*
X131864Y283180D01*
X132080Y283301D01*
X132293Y283427D01*
X132502Y283559D01*
X132709Y283695D01*
X132912Y283837D01*
X133111Y283983D01*
X133307Y284135D01*
X133499Y284291D01*
X133687Y284451D01*
X133872Y284616D01*
X134052Y284786D01*
X134228Y284960D01*
X134400Y285138D01*
X134567Y285320D01*
X134730Y285506D01*
X134888Y285696D01*
X135042Y285890D01*
X135190Y286088D01*
X135334Y286289D01*
X135473Y286494D01*
X135607Y286702D01*
X135736Y286913D01*
X135860Y287128D01*
X135978Y287345D01*
X136092Y287565D01*
X136199Y287788D01*
X136302Y288013D01*
X136398Y288241D01*
X136490Y288471D01*
X136575Y288703D01*
X136655Y288937D01*
X136729Y289173D01*
X136798Y289411D01*
X136860Y289650D01*
X136917Y289891D01*
X136968Y290133D01*
X137013Y290376D01*
X137052Y290621D01*
X137085Y290866D01*
X137112Y291112D01*
X137133Y291358D01*
X137148Y291605D01*
X137157Y291853D01*
X137160Y292100D01*
D13*
X133985Y251990D02*
X143341Y251990D01*
X143460Y251992D01*
X143579Y251998D01*
X143697Y252008D01*
X143816Y252021D01*
X143933Y252039D01*
X144050Y252061D01*
X144166Y252086D01*
X144282Y252115D01*
X144396Y252148D01*
X144509Y252185D01*
X144621Y252225D01*
X144732Y252270D01*
X144841Y252317D01*
X144948Y252369D01*
X145053Y252424D01*
X145157Y252482D01*
X145259Y252544D01*
X145358Y252609D01*
X145456Y252677D01*
X145551Y252749D01*
X145644Y252823D01*
X145734Y252901D01*
X145821Y252982D01*
X145906Y253065D01*
X145988Y253151D01*
X146067Y253240D01*
X146143Y253331D01*
X146216Y253425D01*
X146286Y253522D01*
X146353Y253620D01*
X146417Y253721D01*
X146477Y253823D01*
X146533Y253928D01*
X146586Y254035D01*
X146636Y254143D01*
X146682Y254252D01*
X146724Y254364D01*
X146763Y254476D01*
X146798Y254590D01*
X146829Y254705D01*
X146856Y254821D01*
X146880Y254937D01*
X146899Y255055D01*
X146915Y255172D01*
X146927Y255291D01*
X146935Y255410D01*
X146939Y255529D01*
X146939Y255647D01*
X146935Y255766D01*
X146927Y255885D01*
X146915Y256004D01*
X146899Y256121D01*
X146880Y256239D01*
X146856Y256355D01*
X146829Y256471D01*
X146798Y256586D01*
X146763Y256700D01*
X146724Y256812D01*
X146682Y256924D01*
X146636Y257033D01*
X146586Y257141D01*
X146533Y257248D01*
X146477Y257353D01*
X146417Y257455D01*
X146353Y257556D01*
X146286Y257654D01*
X146216Y257751D01*
X146143Y257845D01*
X146067Y257936D01*
X145988Y258025D01*
X145906Y258111D01*
X145821Y258194D01*
X145734Y258275D01*
X145644Y258353D01*
X145551Y258427D01*
X145456Y258499D01*
X145358Y258567D01*
X145259Y258632D01*
X145157Y258694D01*
X145053Y258752D01*
X144948Y258807D01*
X144841Y258859D01*
X144732Y258906D01*
X144621Y258951D01*
X144509Y258991D01*
X144396Y259028D01*
X144282Y259061D01*
X144166Y259090D01*
X144050Y259115D01*
X143933Y259137D01*
X143816Y259155D01*
X143697Y259168D01*
X143579Y259178D01*
X143460Y259184D01*
X143341Y259186D01*
X143341Y259187D02*
X133985Y259187D01*
X136864Y265218D02*
X133985Y268817D01*
X146939Y268817D01*
X146939Y272415D02*
X146939Y265218D01*
D15*
X164000Y344725D02*
X164000Y402225D01*
X90000Y402225D01*
X90000Y344725D01*
X164000Y344725D01*
D16*
X114000Y345300D02*
X114000Y350300D01*
X140000Y350300D02*
X140000Y345300D01*
X140000Y350300D02*
X114000Y350300D01*
D11*
X83942Y348408D02*
X74798Y354504D01*
X74798Y348408D02*
X83942Y354504D01*
X76830Y358060D02*
X74798Y360600D01*
X83942Y360600D01*
X83942Y358060D02*
X83942Y363140D01*
D15*
X59325Y204300D02*
X1825Y204300D01*
X59325Y204300D02*
X59325Y278300D01*
X1825Y278300D01*
X1825Y204300D01*
D16*
X2400Y254300D02*
X7400Y254300D01*
X7400Y228300D02*
X2400Y228300D01*
X7400Y228300D02*
X7400Y254300D01*
D11*
X5508Y284358D02*
X11604Y293502D01*
X5508Y293502D02*
X11604Y284358D01*
X20240Y291216D02*
X20238Y291310D01*
X20232Y291405D01*
X20222Y291499D01*
X20209Y291592D01*
X20191Y291685D01*
X20170Y291777D01*
X20145Y291868D01*
X20116Y291958D01*
X20084Y292047D01*
X20047Y292134D01*
X20008Y292220D01*
X19964Y292304D01*
X19918Y292386D01*
X19868Y292466D01*
X19814Y292544D01*
X19758Y292620D01*
X19698Y292693D01*
X19636Y292764D01*
X19570Y292832D01*
X19502Y292898D01*
X19431Y292960D01*
X19358Y293020D01*
X19282Y293076D01*
X19204Y293130D01*
X19124Y293180D01*
X19042Y293226D01*
X18958Y293270D01*
X18872Y293309D01*
X18785Y293346D01*
X18696Y293378D01*
X18606Y293407D01*
X18515Y293432D01*
X18423Y293453D01*
X18330Y293471D01*
X18237Y293484D01*
X18143Y293494D01*
X18048Y293500D01*
X17954Y293502D01*
X17848Y293500D01*
X17743Y293494D01*
X17638Y293485D01*
X17533Y293472D01*
X17429Y293455D01*
X17326Y293434D01*
X17223Y293410D01*
X17121Y293381D01*
X17021Y293350D01*
X16921Y293314D01*
X16823Y293276D01*
X16727Y293233D01*
X16631Y293187D01*
X16538Y293138D01*
X16447Y293086D01*
X16357Y293030D01*
X16269Y292971D01*
X16184Y292909D01*
X16101Y292844D01*
X16020Y292776D01*
X15942Y292705D01*
X15867Y292631D01*
X15794Y292555D01*
X15724Y292476D01*
X15657Y292395D01*
X15592Y292311D01*
X15531Y292225D01*
X15473Y292137D01*
X15418Y292047D01*
X15367Y291955D01*
X15318Y291861D01*
X15273Y291765D01*
X15232Y291668D01*
X15194Y291570D01*
X15160Y291470D01*
X19478Y289438D02*
X19545Y289505D01*
X19610Y289574D01*
X19672Y289646D01*
X19731Y289719D01*
X19787Y289796D01*
X19841Y289874D01*
X19891Y289954D01*
X19938Y290036D01*
X19982Y290120D01*
X20022Y290206D01*
X20060Y290293D01*
X20094Y290381D01*
X20124Y290471D01*
X20151Y290561D01*
X20175Y290653D01*
X20195Y290746D01*
X20211Y290839D01*
X20224Y290933D01*
X20233Y291027D01*
X20238Y291121D01*
X20240Y291216D01*
X19478Y289438D02*
X15160Y284358D01*
X20240Y284358D01*
D15*
X77500Y61675D02*
X77500Y4175D01*
X176500Y4175D01*
X176500Y61675D01*
X77500Y61675D01*
X153000Y61100D02*
X153000Y56100D01*
X102000Y56100D02*
X102000Y61100D01*
D11*
X195758Y62056D02*
X204902Y55960D01*
X204902Y62056D02*
X195758Y55960D01*
X204902Y65612D02*
X204902Y68152D01*
X204900Y68252D01*
X204894Y68351D01*
X204884Y68451D01*
X204871Y68549D01*
X204853Y68648D01*
X204832Y68745D01*
X204807Y68841D01*
X204778Y68937D01*
X204745Y69031D01*
X204709Y69124D01*
X204669Y69215D01*
X204625Y69305D01*
X204578Y69393D01*
X204528Y69479D01*
X204474Y69563D01*
X204417Y69645D01*
X204357Y69724D01*
X204293Y69802D01*
X204227Y69876D01*
X204158Y69948D01*
X204086Y70017D01*
X204012Y70083D01*
X203934Y70147D01*
X203855Y70207D01*
X203773Y70264D01*
X203689Y70318D01*
X203603Y70368D01*
X203515Y70415D01*
X203425Y70459D01*
X203334Y70499D01*
X203241Y70535D01*
X203147Y70568D01*
X203051Y70597D01*
X202955Y70622D01*
X202858Y70643D01*
X202759Y70661D01*
X202661Y70674D01*
X202561Y70684D01*
X202462Y70690D01*
X202362Y70692D01*
X202262Y70690D01*
X202163Y70684D01*
X202063Y70674D01*
X201965Y70661D01*
X201866Y70643D01*
X201769Y70622D01*
X201673Y70597D01*
X201577Y70568D01*
X201483Y70535D01*
X201390Y70499D01*
X201299Y70459D01*
X201209Y70415D01*
X201121Y70368D01*
X201035Y70318D01*
X200951Y70264D01*
X200869Y70207D01*
X200790Y70147D01*
X200712Y70083D01*
X200638Y70017D01*
X200566Y69948D01*
X200497Y69876D01*
X200431Y69802D01*
X200367Y69724D01*
X200307Y69645D01*
X200250Y69563D01*
X200196Y69479D01*
X200146Y69393D01*
X200099Y69305D01*
X200055Y69215D01*
X200015Y69124D01*
X199979Y69031D01*
X199946Y68937D01*
X199917Y68841D01*
X199892Y68745D01*
X199871Y68648D01*
X199853Y68549D01*
X199840Y68451D01*
X199830Y68351D01*
X199824Y68252D01*
X199822Y68152D01*
X195758Y68660D02*
X195758Y65612D01*
X195758Y68660D02*
X195760Y68749D01*
X195766Y68837D01*
X195775Y68925D01*
X195789Y69013D01*
X195806Y69100D01*
X195827Y69186D01*
X195852Y69271D01*
X195881Y69355D01*
X195913Y69438D01*
X195948Y69519D01*
X195988Y69598D01*
X196030Y69676D01*
X196076Y69752D01*
X196125Y69826D01*
X196178Y69897D01*
X196233Y69966D01*
X196292Y70033D01*
X196353Y70097D01*
X196417Y70158D01*
X196484Y70217D01*
X196553Y70272D01*
X196624Y70325D01*
X196698Y70374D01*
X196774Y70420D01*
X196852Y70462D01*
X196931Y70502D01*
X197012Y70537D01*
X197095Y70569D01*
X197179Y70598D01*
X197264Y70623D01*
X197350Y70644D01*
X197437Y70661D01*
X197525Y70675D01*
X197613Y70684D01*
X197701Y70690D01*
X197790Y70692D01*
X197879Y70690D01*
X197967Y70684D01*
X198055Y70675D01*
X198143Y70661D01*
X198230Y70644D01*
X198316Y70623D01*
X198401Y70598D01*
X198485Y70569D01*
X198568Y70537D01*
X198649Y70502D01*
X198728Y70462D01*
X198806Y70420D01*
X198882Y70374D01*
X198956Y70325D01*
X199027Y70272D01*
X199096Y70217D01*
X199163Y70158D01*
X199227Y70097D01*
X199288Y70033D01*
X199347Y69966D01*
X199402Y69897D01*
X199455Y69826D01*
X199504Y69752D01*
X199550Y69676D01*
X199592Y69598D01*
X199632Y69519D01*
X199667Y69438D01*
X199699Y69355D01*
X199728Y69271D01*
X199753Y69186D01*
X199774Y69100D01*
X199791Y69013D01*
X199805Y68925D01*
X199814Y68837D01*
X199820Y68749D01*
X199822Y68660D01*
X199822Y66628D01*
M02*
